<?xml version="1.0" encoding="UTF-8"?>
<svg version="1.1" xmlns="http://www.w3.org/2000/svg" width="199" height="199">
<path d="M0 0 C2.5 -0.3125 2.5 -0.3125 5 0 C7.39029886 2.39029886 7.1823674 2.88990739 7.25 6.125 C7.76325452 11.60266466 9.94375294 15.30591786 14 19 C17.51400668 20.54086322 17.51400668 20.54086322 21 21 C21.804375 21.20625 22.60875 21.4125 23.4375 21.625 C23.953125 21.74875 24.46875 21.8725 25 22 C29.14017876 17.64750438 30.55182874 15.16235487 31 9 C31.84210526 4.15789474 31.84210526 4.15789474 33 3 C36 2.875 36 2.875 39 3 C40 4 40 4 40.125 7 C40 10 40 10 39 11 C38.84806837 13.12119924 38.77816486 15.24855315 38.75 17.375 C38.72421875 18.53773437 38.6984375 19.70046875 38.671875 20.8984375 C38.72011828 23.99713019 38.72011828 23.99713019 40.515625 25.9140625 C41.00546875 26.27242187 41.4953125 26.63078125 42 27 C49.12093836 22.72743698 50.88261153 18.86458576 53 11 C54 10 54 10 56.4375 9.8125 C59 10 59 10 61 12 C61.3125 14.375 61.3125 14.375 61 17 C60.30003906 17.87785156 60.30003906 17.87785156 59.5859375 18.7734375 C57.62508878 21.52635318 57.06221786 23.96552175 56.3125 27.25 C56.06113281 28.32765625 55.80976563 29.4053125 55.55078125 30.515625 C55.36902344 31.33546875 55.18726563 32.1553125 55 33 C56.98 30.03 58.96 27.06 61 24 C65 25 65 25 66 26 C66.04063832 27.66617115 66.042721 29.33388095 66 31 C65.34 31 64.68 31 64 31 C63.74089844 31.86367188 63.48179687 32.72734375 63.21484375 33.6171875 C61.97928992 37.05766858 60.35201859 39.9445193 58.5625 43.125 C56.25381675 47.93895115 56.25381675 47.93895115 56.72265625 53.08984375 C57.66252578 55.0821577 58.64653297 57.05420285 59.671875 59.00390625 C62.30558304 64.94524173 61.77635078 71.82645302 60 78 C59.34 78 58.68 78 58 78 C58 79.32 58 80.64 58 82 C58.763125 81.938125 59.52625 81.87625 60.3125 81.8125 C63 82 63 82 64.75 83.3125 C68.60321962 88.51434649 67.88656585 96.81037444 67 103 C65.67394794 107.62560196 63.54435566 111.92639431 61 116 C60.01 116.495 60.01 116.495 59 117 C58.41081863 118.79651447 58.41081863 118.79651447 58.0703125 120.97265625 C57.91433594 121.79056641 57.75835937 122.60847656 57.59765625 123.45117188 C57.28759179 125.16421398 56.98020766 126.87774385 56.67578125 128.59179688 C55.57449981 134.33547201 53.93907224 138.92289678 51 144 C50.34 144.33 49.68 144.66 49 145 C49.60696024 147.01031186 49.60696024 147.01031186 51 149 C53.55119007 150.0730072 53.55119007 150.0730072 56.5625 150.625 C57.63113281 150.86089844 58.69976562 151.09679687 59.80078125 151.33984375 C60.85652344 151.55769531 61.91226563 151.77554688 63 152 C64.75038173 152.3941419 66.5004357 152.78974532 68.25 153.1875 C69.4875 153.455625 70.725 153.72375 72 154 C72 154.99 72 155.98 72 157 C55.9638833 169.98499715 32.64627929 173.37248475 12.68359375 171.7265625 C-1.37957897 170.03066226 -15.12800045 165.90218267 -27 158 C-27.66 157.01 -28.32 156.02 -29 155 C-27.92621094 154.73445312 -26.85242188 154.46890625 -25.74609375 154.1953125 C-24.3098799 153.83860579 -22.87368288 153.48183134 -21.4375 153.125 C-20.73302734 152.95097656 -20.02855469 152.77695313 -19.30273438 152.59765625 C-14.83975002 151.48705185 -10.41512948 150.28798784 -6 149 C-6.45890625 148.31035156 -6.9178125 147.62070313 -7.390625 146.91015625 C-17 132.19327731 -17 132.19327731 -17 127 C-17.845625 127 -18.69125 127 -19.5625 127 C-24.71686435 125.50054855 -27.08681801 122.39791967 -30 118 C-33.39551177 111.39330423 -35.04787143 105.28292304 -33 98 C-32.63777344 97.319375 -32.27554688 96.63875 -31.90234375 95.9375 C-30.70112082 93.87335606 -30.70112082 93.87335606 -31.6875 90.9375 C-32.91967468 88.17977571 -33.88561397 87.02245621 -36 85 C-36.98692912 82.05784143 -37.0198803 79.68769839 -36.7109375 76.62109375 C-35.65077937 66.43702666 -35.65077937 66.43702666 -39.33984375 57.30859375 C-42.79581167 53.62094409 -46.80994084 50.79337278 -51 48 C-50.67 46.35 -50.34 44.7 -50 43 C-47.8125 42.1875 -47.8125 42.1875 -45 42 C-42.1875 44.4375 -42.1875 44.4375 -40 47 C-40.90019114 43.85335347 -40.90019114 43.85335347 -43.0625 40.9375 C-45 38 -45 38 -45 36 C-45.804375 35.7525 -46.60875 35.505 -47.4375 35.25 C-50 34 -50 34 -50.9375 32.0625 C-51 30 -51 30 -49 27 C-46.1875 26.375 -46.1875 26.375 -43 27 C-41.57359916 28.62131276 -40.50207429 30.34590145 -39.3515625 32.171875 C-37.0485015 35.28699797 -34.53280542 36.45841218 -31 38 C-28.83286743 37.65562774 -28.83286743 37.65562774 -27 37 C-27.30451704 33.66327072 -27.64287218 30.33149238 -28 27 C-28.103125 26.01 -28.20625 25.02 -28.3125 24 C-28.83508203 21.80391643 -28.83508203 21.80391643 -31.0625 20.6875 C-31.701875 20.460625 -32.34125 20.23375 -33 20 C-33.125 17.625 -33.125 17.625 -33 15 C-31 13 -31 13 -28.5 12.75 C-26 13 -26 13 -24 15 C-23.71125 15.928125 -23.4225 16.85625 -23.125 17.8125 C-21.66701884 21.94344661 -19.73438291 24.78593196 -16.125 27.3125 C-13.01843979 28.3175636 -11.24872244 28.66300458 -8 28 C-3.7656553 23.31321847 -1.19651495 17.20974426 -0.8125 10.9375 C-0.91817085 8.0188929 -0.91817085 8.0188929 -1.625 5.3125 C-2 3 -2 3 0 0 Z " fill="#0E0C06" transform="translate(76,19)"/>
<path d="M0 0 C-0.61754259 1.31602523 -1.24428742 2.62773556 -1.875 3.9375 C-2.39707031 5.03384766 -2.39707031 5.03384766 -2.9296875 6.15234375 C-4 8 -4 8 -6 9 C-6 8.01 -6 7.02 -6 6 C-10.59487392 8.03029313 -13.55754836 10.36630104 -17 14 C-17.99 14.495 -17.99 14.495 -19 15 C-19.33 14.01 -19.66 13.02 -20 12 C-22.05362055 17.08940744 -23.43179252 21.54520815 -24 27 C-24.66 27 -25.32 27 -26 27 C-26.99 29.475 -26.99 29.475 -28 32 C-27.20980469 31.80664062 -26.41960938 31.61328125 -25.60546875 31.4140625 C-17.68671737 29.58596218 -9.92900451 28.4328174 -1.83862305 27.73486328 C2.90723886 27.30585311 7.42479325 26.55170695 12.05517578 25.41674805 C14.40076895 24.91412094 16.60953022 24.84577614 19 25 C18.505 26.485 18.505 26.485 18 28 C18.33 28.33 18.66 28.66 19 29 C19.66 28.01 20.32 27.02 21 26 C22.65 26.33 24.3 26.66 26 27 C26 26.01 26 25.02 26 24 C26 23.67 26 23.34 26 23 C29.96 22.67 33.92 22.34 38 22 C38 22.66 38 23.32 38 24 C38.474375 24.474375 38.94875 24.94875 39.4375 25.4375 C41 27 41 27 42 30 C43.485 30.495 43.485 30.495 45 31 C45 33.97 45 36.94 45 40 C44.34 40 43.68 40 43 40 C43 39.01 43 38.02 43 37 C41.948125 37.61875 40.89625 38.2375 39.8125 38.875 C33.13249248 42.63500423 27.38500833 44.21001045 19.72265625 42.48828125 C19.15417969 42.32714844 18.58570313 42.16601562 18 42 C17.505 42.99 17.505 42.99 17 44 C13.22222222 42.48888889 13.22222222 42.48888889 12.0625 39.9375 C11.711875 39.298125 11.36125 38.65875 11 38 C8.44480079 37.18828772 8.44480079 37.18828772 6 37 C5.94392578 37.8353125 5.94392578 37.8353125 5.88671875 38.6875 C5.35625445 44.84504639 4.60690229 51.1034419 0.3125 55.875 C-6.66607889 59.26998432 -14.34756284 59.92224494 -22 59 C-25.25 57.125 -25.25 57.125 -27 55 C-27 54.34 -27 53.68 -27 53 C-28.485 53.495 -28.485 53.495 -30 54 C-30.25394531 53.38511719 -30.50789063 52.77023438 -30.76953125 52.13671875 C-31.11371094 51.32847656 -31.45789062 50.52023438 -31.8125 49.6875 C-32.14894531 48.88699219 -32.48539063 48.08648437 -32.83203125 47.26171875 C-33.98200704 45.03484255 -35.13626961 43.65012233 -37 42 C-36.01 42 -35.02 42 -34 42 C-34 39.69 -34 37.38 -34 35 C-34.66 34.67 -35.32 34.34 -36 34 C-35.34 34 -34.68 34 -34 34 C-33.505 31.03 -33.505 31.03 -33 28 C-32.67 28 -32.34 28 -32 28 C-31.67 23.05 -31.34 18.1 -31 13 C-29 16 -29 16 -27 22 C-26.34 17.38 -25.68 12.76 -25 8 C-24.34 8.33 -23.68 8.66 -23 9 C-21.35 7.02 -19.7 5.04 -18 3 C-17.31292445 5.49064888 -17 7.37886292 -17 10 C-16.32904297 9.16855469 -16.32904297 9.16855469 -15.64453125 8.3203125 C-10.88223346 2.61367847 -7.75600785 -0.44320045 0 0 Z " fill="#1D1C1C" transform="translate(84,78)"/>
<path d="M0 0 C2.27639115 0.63502985 4.27987826 0.92861663 6.625 1.08984375 C9.5625 1.71484375 9.5625 1.71484375 11.5 3.77734375 C12.89829156 7.64320866 12.77087644 10.61677384 12.5625 14.71484375 C11.5725 13.72484375 11.5725 13.72484375 10.5625 12.71484375 C9.5725 17.16984375 9.5725 17.16984375 8.5625 21.71484375 C4.6875 18.96484375 4.6875 18.96484375 3.5625 16.71484375 C2.9025 16.71484375 2.2425 16.71484375 1.5625 16.71484375 C1.5625 16.05484375 1.5625 15.39484375 1.5625 14.71484375 C0.9025 14.71484375 0.2425 14.71484375 -0.4375 14.71484375 C0.12795837 18.67305234 1.37152348 21.38074905 3.5625 24.71484375 C1.1875 24.90234375 1.1875 24.90234375 -1.4375 24.71484375 C-2.0975 23.72484375 -2.7575 22.73484375 -3.4375 21.71484375 C-5.93042636 21.27310403 -5.93042636 21.27310403 -8.75 21.40234375 C-10.16732422 21.40814453 -10.16732422 21.40814453 -11.61328125 21.4140625 C-14.56423149 21.72834074 -16.74602866 22.49563024 -19.4375 23.71484375 C-20.18 24.00359375 -20.9225 24.29234375 -21.6875 24.58984375 C-23.64215719 25.57672174 -23.64215719 25.57672174 -24.046875 27.78515625 C-24.17578125 28.42195313 -24.3046875 29.05875 -24.4375 29.71484375 C-31.39429178 31.68664608 -38.32046959 32.51114881 -45.5 33.27734375 C-47.78264169 33.5278306 -50.06519656 33.77911015 -52.34765625 34.03125 C-53.40484863 34.14742676 -54.46204102 34.26360352 -55.55126953 34.38330078 C-58.85874746 34.76323269 -62.14651526 35.21331487 -65.4375 35.71484375 C-64.9425 32.74484375 -64.9425 32.74484375 -64.4375 29.71484375 C-63.4475 30.04484375 -62.4575 30.37484375 -61.4375 30.71484375 C-61.499375 29.72484375 -61.56125 28.73484375 -61.625 27.71484375 C-61.63419363 23.20996666 -60.27186565 19.80689019 -58.4375 15.71484375 C-57.7775 15.38484375 -57.1175 15.05484375 -56.4375 14.71484375 C-56.1075 15.70484375 -55.7775 16.69484375 -55.4375 17.71484375 C-54.695 16.95171875 -53.9525 16.18859375 -53.1875 15.40234375 C-49.313838 11.61671952 -46.88147879 9.47095191 -41.4375 8.71484375 C-41.4375 9.37484375 -41.4375 10.03484375 -41.4375 10.71484375 C-40.4475 8.73484375 -39.4575 6.75484375 -38.4375 4.71484375 C-42.59912543 4.95964525 -44.84905817 5.21046504 -48.0625 7.96484375 C-49.238125 9.32609375 -49.238125 9.32609375 -50.4375 10.71484375 C-52.10416667 12.38151042 -53.77083333 14.04817708 -55.4375 15.71484375 C-54.68993351 6.89355918 -54.68993351 6.89355918 -51.4375 2.71484375 C-48.6953125 1.5703125 -48.6953125 1.5703125 -45.5625 0.90234375 C-44.53382812 0.66902344 -43.50515625 0.43570313 -42.4453125 0.1953125 C-39.66196533 -0.2493001 -37.24153214 -0.57088664 -34.4375 -0.28515625 C-32.125 2.21484375 -32.125 2.21484375 -30.4375 4.71484375 C-31.99250981 8.53168601 -34.47345495 10.90680107 -37.4375 13.71484375 C-36.1635098 12.94923919 -34.89343488 12.17711749 -33.625 11.40234375 C-32.91730469 10.97308594 -32.20960937 10.54382813 -31.48046875 10.1015625 C-29.54789769 8.78977908 -28.02339388 7.4208053 -26.4375 5.71484375 C-28.4175 4.39484375 -30.3975 3.07484375 -32.4375 1.71484375 C-32.1075 0.72484375 -31.7775 -0.26515625 -31.4375 -1.28515625 C-20.82760417 -3.32173068 -10.33958365 -3.04849138 0 0 Z " fill="#EEB693" transform="translate(121.4375,74.28515625)"/>
<path d="M0 0 C1.72890644 2.27102117 3.33710631 4.52813323 4.875 6.9375 C7.75170292 11.08333656 10.80385794 14.20257196 15 17 C20.2835027 16.80431471 23.34707036 15.8503853 27 12 C28.51692873 9.40734077 29.80356727 6.75380048 31 4 C31.33 4 31.66 4 32 4 C32.05607422 5.22976562 32.05607422 5.22976562 32.11328125 6.484375 C32.17902344 7.56203125 32.24476562 8.6396875 32.3125 9.75 C32.37050781 10.81734375 32.42851563 11.8846875 32.48828125 12.984375 C33.03726887 16.21963029 33.70779763 17.68581007 36 20 C39.18499983 20.65147724 41.11256302 20.51499857 43.9453125 18.87109375 C45.68411452 17.63562916 47.35771433 16.36047334 49 15 C48.21824485 19.84688192 46.60155722 24.3766367 45 29 C44.29359375 28.79503906 43.5871875 28.59007813 42.859375 28.37890625 C32.61552861 25.68925312 22.54481263 25.30488491 12 25 C12 24.01 12 23.02 12 22 C9.01307189 21.03689464 6.13406033 20.26248412 3 20 C-0.07342155 21.66477001 -1.45930697 22.84652153 -2.9375 26 C-3.0160762 28.5144383 -2.14282172 29.78158137 -1 32 C-0.875 34.75 -0.875 34.75 -1 37 C-3.97 37.66 -6.94 38.32 -10 39 C-9.979375 38.236875 -9.95875 37.47375 -9.9375 36.6875 C-9.87057159 33.89814214 -9.87057159 33.89814214 -11 31 C-12.813713 31.64241894 -14.62594124 32.28903119 -16.4375 32.9375 C-17.44683594 33.29714844 -18.45617187 33.65679687 -19.49609375 34.02734375 C-21.90313745 34.76877639 -21.90313745 34.76877639 -23 36 C-21.576875 35.2265625 -21.576875 35.2265625 -20.125 34.4375 C-19.09375 33.963125 -18.0625 33.48875 -17 33 C-16.34 33.33 -15.68 33.66 -15 34 C-14.61781233 35.65614657 -14.28604898 37.32457024 -14 39 C-13.67 39.66 -13.34 40.32 -13 41 C-12.34 40.855625 -11.68 40.71125 -11 40.5625 C-0.67302886 38.62619291 -0.67302886 38.62619291 4.125 40.25 C5.40375 40.4975 6.6825 40.745 8 41 C9.42258761 39.7231609 10.84490179 38.44601292 12.26464844 37.16601562 C15.45872005 35.01985833 18.84405941 35.43664231 22.5625 35.625 C23.30435547 35.63917969 24.04621094 35.65335938 24.81054688 35.66796875 C28.6044203 35.76931889 32.34091683 35.91842839 36 37 C36.33 37.66 36.66 38.32 37 39 C39.28426391 39.61520696 39.28426391 39.61520696 41.9375 40 C46.78044597 40.78044597 46.78044597 40.78044597 49 43 C48.625 45.125 48.625 45.125 48 47 C46.37239583 46.25130208 44.74479167 45.50260417 43.1171875 44.75390625 C29.46750432 39.89341021 11.70853374 42.58023674 -2 46 C-3.11632812 46.2784375 -4.23265625 46.556875 -5.3828125 46.84375 C-15.04635794 49.54488559 -25.12761069 53.66744234 -33 60 C-33 56.62299412 -32.56364056 54.59832614 -30.22265625 52.11328125 C-28.18573356 50.3562973 -26.10697204 48.67178968 -24 47 C-23.34 46.34 -22.68 45.68 -22 45 C-22.32041397 42.39719432 -22.32041397 42.39719432 -23 40 C-24.32 40 -25.64 40 -27 40 C-27.16687448 42.41645782 -27.16687448 42.41645782 -27 45 C-26.34 45.66 -25.68 46.32 -25 47 C-26.32 47.66 -27.64 48.32 -29 49 C-29.33 47.68 -29.66 46.36 -30 45 C-30.66 45 -31.32 45 -32 45 C-32.33 45.66 -32.66 46.32 -33 47 C-33.598125 46.79375 -34.19625 46.5875 -34.8125 46.375 C-37.28450846 45.69328085 -37.28450846 45.69328085 -40 48 C-42.31 45.69 -44.62 43.38 -47 41 C-43.13304322 41 -40.4911548 42.41909971 -37 44 C-38.74732641 37.73519555 -40.97120279 33.11766132 -45 28 C-44.67 27.34 -44.34 26.68 -44 26 C-43.030625 26.804375 -42.06125 27.60875 -41.0625 28.4375 C-36.89965554 31.45726832 -33.04470785 31.87416828 -28 32 C-27.22686955 26.0885256 -26.85180723 20.8685408 -28 15 C-27.52691406 15.42152344 -27.05382812 15.84304687 -26.56640625 16.27734375 C-22.2263573 19.87290087 -18.75089049 21.97730281 -13.0390625 22.22265625 C-9.59221633 21.8462765 -8.22568789 20.60723439 -6 18 C-2.32801971 12.41499502 -1.01781659 6.53545392 0 0 Z " fill="#B48B12" transform="translate(79,28)"/>
<path d="M0 0 C0.33 0 0.66 0 1 0 C1.20728634 6.36829691 1.29743781 12.00113461 -1 18 C-1.66 18.66 -2.32 19.32 -3 20 C-3.67502703 21.71025755 -4.29284545 23.44344196 -4.875 25.1875 C-6.50100368 29.83322479 -8.40405599 33.82794712 -11 38 C-11.66 37.34 -12.32 36.68 -13 36 C-14.32 38.31 -15.64 40.62 -17 43 C-17.99 42.505 -17.99 42.505 -19 42 C-19.61875 42.969375 -20.2375 43.93875 -20.875 44.9375 C-23 48 -23 48 -25 49 C-29.70777 49.39231417 -32.07079697 49.47336758 -36.3125 47.3125 C-38.96795507 45.02757355 -40.2579107 42.9864388 -42 40 C-42.99 40 -43.98 40 -45 40 C-45.33773437 39.31292969 -45.67546875 38.62585938 -46.0234375 37.91796875 C-46.46945313 37.01691406 -46.91546875 36.11585938 -47.375 35.1875 C-47.81585938 34.29417969 -48.25671875 33.40085938 -48.7109375 32.48046875 C-50.01866905 29.85443619 -50.01866905 29.85443619 -52 27 C-51.6796875 25.0625 -51.6796875 25.0625 -50.875 23 C-50.62492187 22.319375 -50.37484375 21.63875 -50.1171875 20.9375 C-47.96323303 17.20197057 -45.6195119 16.16782764 -41.49609375 15.05078125 C-40.14604823 14.78966476 -38.79290239 14.54420904 -37.4375 14.3125 C-36.72875732 14.18875 -36.02001465 14.065 -35.28979492 13.9375 C-23.32331092 11.96543427 -23.32331092 11.96543427 -18 13 C-14.9375 15.375 -14.9375 15.375 -13 18 C-12.34 18.66 -11.68 19.32 -11 20 C-10.34 18.02 -9.68 16.04 -9 14 C-8.34 14.33 -7.68 14.66 -7 15 C-6.71125 14.4225 -6.4225 13.845 -6.125 13.25 C-5.08333333 11.16666667 -4.04166667 9.08333333 -3 7 C-2.34 7 -1.68 7 -1 7 C-0.67 4.69 -0.34 2.38 0 0 Z " fill="#1C1D1C" transform="translate(130,130)"/>
<path d="M0 0 C1.65 0 3.3 0 5 0 C7.74522883 4.42778844 9.48474397 7.71862571 10 13 C10.66 12.34 11.32 11.68 12 11 C12.53109375 11.48726562 13.0621875 11.97453125 13.609375 12.4765625 C18.64018121 15.68246842 25.82390385 14.64319687 31.48828125 13.49609375 C35.97150931 12.01857038 38.45385771 9.9253027 41 6 C41.2358396 11.77807024 40.86783046 16.51324804 39 22 C38.34 22 37.68 22 37 22 C36.896875 22.7425 36.79375 23.485 36.6875 24.25 C35.95746496 27.17014018 34.93210602 28.73187554 33 31 C32.34 30.67 31.68 30.34 31 30 C30.34 31.98 29.68 33.96 29 36 C28.401875 35.21625 27.80375 34.4325 27.1875 33.625 C24.96911453 30.96293744 23.38794038 29.19537735 19.86328125 28.69921875 C13.98853571 28.67222911 8.34095177 29.25807304 2.5625 30.25 C1.87647705 30.35916748 1.1904541 30.46833496 0.48364258 30.58081055 C-3.85944322 31.39758276 -6.2976702 32.47579374 -9 36 C-10.26784124 39.13350717 -10.26784124 39.13350717 -11 42 C-11.47050781 41.566875 -11.94101563 41.13375 -12.42578125 40.6875 C-13.04839844 40.130625 -13.67101562 39.57375 -14.3125 39 C-14.92738281 38.443125 -15.54226562 37.88625 -16.17578125 37.3125 C-18.03131335 35.70798502 -18.03131335 35.70798502 -21 36 C-21.66 35.34 -22.32 34.68 -23 34 C-24.175625 32.948125 -24.175625 32.948125 -25.375 31.875 C-28.35957205 28.60618299 -30.63401433 25.23987759 -32 21 C-31.505 19.515 -31.505 19.515 -31 18 C-30.61972656 18.48726562 -30.23945312 18.97453125 -29.84765625 19.4765625 C-26.08224013 22.58123964 -20.61417032 21.40877965 -16 21 C-9.32228739 19.94745649 -9.32228739 19.94745649 -4.328125 15.8125 C-2.82401677 12.62732963 -2.04297266 9.63115682 -1.3125 6.1875 C-1.06113281 5.02605469 -0.80976562 3.86460938 -0.55078125 2.66796875 C-0.36902344 1.78753906 -0.18726562 0.90710938 0 0 Z " fill="#F0B794" transform="translate(90,115)"/>
<path d="M0 0 C1.41110894 2.82221788 0.52254327 4.20255104 -0.375 7.1875 C-1.61202256 11.48036367 -2.50723759 15.56513827 -3 20 C0.37503669 18.8141763 2.64722731 17.72426311 5 15 C4.1875 18.4375 4.1875 18.4375 3 22 C1.515 22.495 1.515 22.495 0 23 C0 24.98 0 26.96 0 29 C-2.97851562 28.95117188 -2.97851562 28.95117188 -5.95703125 28.90234375 C-8.20305461 28.91736783 -8.20305461 28.91736783 -11 30 C-12.485 29.505 -12.485 29.505 -14 29 C-14.33 29.66 -14.66 30.32 -15 31 C-15 29.68 -15 28.36 -15 27 C-18.54122827 26.85398386 -22.08167644 26.7656944 -25.625 26.6875 C-26.62402344 26.64560547 -27.62304688 26.60371094 -28.65234375 26.56054688 C-35.48185181 26.44747555 -38.11394333 27.30244861 -43 32 C-46.875 31.25 -46.875 31.25 -48.93359375 30.5625 C-54.85576029 28.95041686 -62.16343015 31.60841043 -68 33 C-67.01 32.01 -66.02 31.02 -65 30 C-65.66 29.34 -66.32 28.68 -67 28 C-67.625 25.875 -67.625 25.875 -68 24 C-68.55429688 24.30035156 -69.10859375 24.60070312 -69.6796875 24.91015625 C-70.40414062 25.29042969 -71.12859375 25.67070313 -71.875 26.0625 C-72.95394531 26.63677734 -72.95394531 26.63677734 -74.0546875 27.22265625 C-74.69664063 27.47917969 -75.33859375 27.73570313 -76 28 C-76.66 27.67 -77.32 27.34 -78 27 C-76.12762629 26.03654556 -74.2519701 25.07946898 -72.375 24.125 C-70.80878906 23.32449219 -70.80878906 23.32449219 -69.2109375 22.5078125 C-61.30285714 18.79428571 -61.30285714 18.79428571 -57.625 19.375 C-57.08875 19.58125 -56.5525 19.7875 -56 20 C-57.98 20.33 -59.96 20.66 -62 21 C-61.34 21.99 -60.68 22.98 -60 24 C-60 25.32 -60 26.64 -60 28 C-56.04 27.505 -56.04 27.505 -52 27 C-52.12375 25.700625 -52.2475 24.40125 -52.375 23.0625 C-52.44460937 22.33160156 -52.51421875 21.60070312 -52.5859375 20.84765625 C-52.72257812 20.23792969 -52.85921875 19.62820312 -53 19 C-53.66 18.67 -54.32 18.34 -55 18 C-54.06988459 14.95598593 -52.97297765 12.96724564 -50.9375 10.5 C-48 9 -48 9 -45.671875 9.421875 C-43.39097606 10.18217465 -41.19641581 11.02381519 -39 12 C-39 12.99 -39 13.98 -39 15 C-37.69546875 14.96519531 -36.3909375 14.93039063 -35.046875 14.89453125 C-25.20566707 14.71375131 -16.40784774 14.78756419 -7 18 C-6.34865075 16.43979133 -5.70417036 14.87671421 -5.0625 13.3125 C-4.70285156 12.44238281 -4.34320313 11.57226562 -3.97265625 10.67578125 C-2.93553316 8.04443725 -2.93553316 8.04443725 -2.49609375 5.35546875 C-2 3 -2 3 0 0 Z " fill="#804C00" transform="translate(130,38)"/>
<path d="M0 0 C1.72890644 2.27102117 3.33710631 4.52813323 4.875 6.9375 C7.75170292 11.08333656 10.80385794 14.20257196 15 17 C20.2835027 16.80431471 23.34707036 15.8503853 27 12 C28.51692873 9.40734077 29.80356727 6.75380048 31 4 C31.33 4 31.66 4 32 4 C32.05607422 5.22976562 32.05607422 5.22976562 32.11328125 6.484375 C32.21189453 8.10085937 32.21189453 8.10085937 32.3125 9.75 C32.37050781 10.81734375 32.42851563 11.8846875 32.48828125 12.984375 C33.03726887 16.21963029 33.70779763 17.68581007 36 20 C39.18499983 20.65147724 41.11256302 20.51499857 43.9453125 18.87109375 C45.68411452 17.63562916 47.35771433 16.36047334 49 15 C48.21824485 19.84688192 46.60155722 24.3766367 45 29 C44.29359375 28.79503906 43.5871875 28.59007813 42.859375 28.37890625 C32.61552861 25.68925312 22.54481263 25.30488491 12 25 C12 24.01 12 23.02 12 22 C9.01307189 21.03689464 6.13406033 20.26248412 3 20 C-0.07342155 21.66477001 -1.45930697 22.84652153 -2.9375 26 C-3.0160762 28.5144383 -2.14282172 29.78158137 -1 32 C-0.875 34.75 -0.875 34.75 -1 37 C-3.97 37.66 -6.94 38.32 -10 39 C-9.979375 38.236875 -9.95875 37.47375 -9.9375 36.6875 C-9.87057159 33.89814214 -9.87057159 33.89814214 -11 31 C-11.86625 31.2475 -11.86625 31.2475 -12.75 31.5 C-15 32 -15 32 -19 32 C-20.921875 29.4453125 -20.921875 29.4453125 -22.75 26.125 C-23.67039063 24.48917969 -23.67039063 24.48917969 -24.609375 22.8203125 C-26 20 -26 20 -26 18 C-21.28971963 19.8317757 -21.28971963 19.8317757 -19.0625 21.125 C-16.16117278 22.35586609 -14.12459603 22.3826036 -11 22 C-6.09750684 19.19857534 -3.89515156 15.15271623 -2 10 C-1.16503296 6.68843581 -0.52541716 3.37373126 0 0 Z " fill="#E7B508" transform="translate(79,28)"/>
<path d="M0 0 C3 1 3 1 4.25 2.9375 C5.66466784 8.71406035 4.83954642 13.99238899 2.5625 19.4375 C-2.59369455 24.59369455 -9.25964803 25.16790886 -16.3125 25.4375 C-20.22632161 25.34179522 -21.78718383 25.12277856 -25.25 23.125 C-27 21 -27 21 -27 19 C-27.99 19.33 -28.98 19.66 -30 20 C-30.25394531 19.38511719 -30.50789063 18.77023438 -30.76953125 18.13671875 C-31.11371094 17.32847656 -31.45789062 16.52023438 -31.8125 15.6875 C-32.14894531 14.88699219 -32.48539063 14.08648437 -32.83203125 13.26171875 C-33.98200704 11.03484255 -35.13626961 9.65012233 -37 8 C-36.01 8 -35.02 8 -34 8 C-33.34 7.01 -32.68 6.02 -32 5 C-32 6.32 -32 7.64 -32 9 C-29.83125748 8.49396008 -28.00032373 8.00016187 -26 7 C-25.34444881 4.47266765 -25.34444881 4.47266765 -25 2 C-24.34 2 -23.68 2 -23 2 C-22.6295811 6.32155383 -23.6952604 8.40073475 -26 12 C-11.26100214 7.94046567 -11.26100214 7.94046567 0 0 Z " fill="#231B17" transform="translate(84,112)"/>
<path d="M0 0 C-0.61754259 1.31602523 -1.24428742 2.62773556 -1.875 3.9375 C-2.39707031 5.03384766 -2.39707031 5.03384766 -2.9296875 6.15234375 C-4 8 -4 8 -6 9 C-6 8.01 -6 7.02 -6 6 C-10.59487392 8.03029313 -13.55754836 10.36630104 -17 14 C-17.99 14.495 -17.99 14.495 -19 15 C-19.33 14.01 -19.66 13.02 -20 12 C-22.05362055 17.08940744 -23.43179252 21.54520815 -24 27 C-24.66 27 -25.32 27 -26 27 C-26.99 29.475 -26.99 29.475 -28 32 C-27.32453125 31.83242187 -26.6490625 31.66484375 -25.953125 31.4921875 C-25.06109375 31.28851563 -24.1690625 31.08484375 -23.25 30.875 C-22.36828125 30.66617188 -21.4865625 30.45734375 -20.578125 30.2421875 C-17.67124507 29.96911696 -16.43338652 30.46491972 -14 32 C-15.98 32.66 -17.96 33.32 -20 34 C-14.72 34 -9.44 34 -4 34 C-8.77913082 40.77043533 -14.09222859 43.6100468 -22 46 C-23.32 46 -24.64 46 -26 46 C-25.21302675 42.58978257 -24.12880057 39.31114834 -23 36 C-23.66 36 -24.32 36 -25 36 C-25 37.65 -25 39.3 -25 41 C-26.485 41.495 -26.485 41.495 -28 42 C-28.33 42.99 -28.66 43.98 -29 45 C-29 44.34 -29 43.68 -29 43 C-29.99 43 -30.98 43 -32 43 C-32.12117188 42.43410156 -32.24234375 41.86820313 -32.3671875 41.28515625 C-32.61855469 40.18494141 -32.61855469 40.18494141 -32.875 39.0625 C-33.11863281 37.96615234 -33.11863281 37.96615234 -33.3671875 36.84765625 C-33.82961523 34.79299706 -33.82961523 34.79299706 -36 34 C-35.34 34 -34.68 34 -34 34 C-33.505 31.03 -33.505 31.03 -33 28 C-32.67 28 -32.34 28 -32 28 C-31.67 23.05 -31.34 18.1 -31 13 C-29 16 -29 16 -27 22 C-26.34 17.38 -25.68 12.76 -25 8 C-24.34 8.33 -23.68 8.66 -23 9 C-21.35 7.02 -19.7 5.04 -18 3 C-17.31292445 5.49064888 -17 7.37886292 -17 10 C-16.32904297 9.16855469 -16.32904297 9.16855469 -15.64453125 8.3203125 C-10.88223346 2.61367847 -7.75600785 -0.44320045 0 0 Z " fill="#2D2D2D" transform="translate(84,78)"/>
<path d="M0 0 C2.27639115 0.63502985 4.27987826 0.92861663 6.625 1.08984375 C9.5625 1.71484375 9.5625 1.71484375 11.5 3.77734375 C12.89829156 7.64320866 12.77087644 10.61677384 12.5625 14.71484375 C11.9025 14.05484375 11.2425 13.39484375 10.5625 12.71484375 C9.9025 15.68484375 9.2425 18.65484375 8.5625 21.71484375 C4.6875 18.96484375 4.6875 18.96484375 3.5625 16.71484375 C2.9025 16.71484375 2.2425 16.71484375 1.5625 16.71484375 C1.5625 16.05484375 1.5625 15.39484375 1.5625 14.71484375 C0.9025 14.71484375 0.2425 14.71484375 -0.4375 14.71484375 C-1.0975 15.37484375 -1.7575 16.03484375 -2.4375 16.71484375 C-3.9225 13.24984375 -3.9225 13.24984375 -5.4375 9.71484375 C-6.4275 10.37484375 -7.4175 11.03484375 -8.4375 11.71484375 C-10.0875 9.40484375 -11.7375 7.09484375 -13.4375 4.71484375 C-14.489375 5.20984375 -15.54125 5.70484375 -16.625 6.21484375 C-19.70177489 7.52014219 -22.05930801 8.27787575 -25.4375 7.71484375 C-27 6.46484375 -27 6.46484375 -28.4375 4.71484375 C-29.159375 3.99296875 -29.88125 3.27109375 -30.625 2.52734375 C-31.223125 1.92921875 -31.82125 1.33109375 -32.4375 0.71484375 C-32.1075 0.05484375 -31.7775 -0.60515625 -31.4375 -1.28515625 C-21.14823163 -3.70981768 -10.05511663 -2.96461998 0 0 Z " fill="#0C180A" transform="translate(121.4375,74.28515625)"/>
<path d="M0 0 C0.12375 0.57621094 0.2475 1.15242188 0.375 1.74609375 C1.01484803 4.0535457 1.89027909 5.94505458 3 8.0625 C5.32199303 12.51014107 6.13746894 15.89381338 6.125 20.9375 C6.12886719 22.49791016 6.12886719 22.49791016 6.1328125 24.08984375 C6.01932023 26.57665971 5.71928571 28.63092407 5 31 C4.34 31 3.68 31 3 31 C3 32.32 3 33.64 3 35 C2.34 35 1.68 35 1 35 C1 34.34 1 33.68 1 33 C-1.64 33.33 -4.28 33.66 -7 34 C-7.28875 33.236875 -7.5775 32.47375 -7.875 31.6875 C-8.96269013 28.84970692 -8.96269013 28.84970692 -11 26 C-10.625 23.8125 -10.625 23.8125 -10 22 C-9.34 22.33 -8.68 22.66 -8 23 C-8 23.66 -8 24.32 -8 25 C-7.195625 25.309375 -6.39125 25.61875 -5.5625 25.9375 C-3 27 -3 27 -2 28 C-1.34 25.36 -0.68 22.72 0 20 C0.66 20.33 1.32 20.66 2 21 C2.36171663 15.59997871 2.36171663 15.59997871 0 11 C-2.70059242 10.41638453 -2.70059242 10.41638453 -4.77734375 10.28125 C-7.4395328 9.94438249 -9.86320294 9.19402812 -12.4375 8.4375 C-19.94637528 6.47202566 -27.30657849 6.73639292 -35 7 C-35.33 7.66 -35.66 8.32 -36 9 C-38.5625 9.625 -38.5625 9.625 -41 10 C-37.535 11.98 -37.535 11.98 -34 14 C-34.928125 14.12375 -34.928125 14.12375 -35.875 14.25 C-36.57625 14.4975 -37.2775 14.745 -38 15 C-38.268125 15.598125 -38.53625 16.19625 -38.8125 16.8125 C-40.72115628 20.32844577 -43.41532046 21.3019939 -47 23 C-47.99 22.67 -48.98 22.34 -50 22 C-49.4225 21.61328125 -48.845 21.2265625 -48.25 20.828125 C-47.5075 20.30734375 -46.765 19.7865625 -46 19.25 C-45.2575 18.73953125 -44.515 18.2290625 -43.75 17.703125 C-43.1725 17.14109375 -42.595 16.5790625 -42 16 C-42 12.23312136 -42.23537317 11.08809695 -44 8 C-45.65 8 -47.3 8 -49 8 C-44.38635278 3.38635278 -36.36935658 3.7447292 -30.18359375 3.7265625 C-28.85521484 3.73816406 -28.85521484 3.73816406 -27.5 3.75 C-26.61441406 3.74226563 -25.72882813 3.73453125 -24.81640625 3.7265625 C-17.43820732 3.74823122 -10.58058711 4.48863409 -4 8 C-4.50603992 5.83125748 -4.99983813 4.00032373 -6 2 C-4.7934375 1.7834375 -4.7934375 1.7834375 -3.5625 1.5625 C-1.07896294 1.25864751 -1.07896294 1.25864751 0 0 Z " fill="#040502" transform="translate(131,66)"/>
<path d="M0 0 C0.66 0 1.32 0 2 0 C2.4125 0.928125 2.825 1.85625 3.25 2.8125 C5.7924922 7.44346794 7.62095969 8.54824542 12.625 10.1875 C21.30705403 12.10787998 29.68599851 11.36177844 37.8125 7.75 C40.5783982 5.53728144 41.63580321 3.2309924 43 0 C43.66 0 44.32 0 45 0 C44.8766663 6.78335377 42.91306982 10.0158912 38.49609375 15.1171875 C36.79262783 16.8601674 36.79262783 16.8601674 37 19 C26.90272288 20.34630362 17.09727712 20.34630362 7 19 C7.33 18.34 7.66 17.68 8 17 C7.50628906 16.443125 7.01257813 15.88625 6.50390625 15.3125 C2.15096908 10.12751246 0.12379922 6.80895731 0 0 Z " fill="#F2F0EF" transform="translate(76,171)"/>
<path d="M0 0 C0.74185547 0.01417969 1.48371094 0.02835938 2.24804688 0.04296875 C6.0419203 0.14431889 9.77841683 0.29342839 13.4375 1.375 C13.9325 2.365 13.9325 2.365 14.4375 3.375 C16.72176391 3.99020696 16.72176391 3.99020696 19.375 4.375 C24.21794597 5.15544597 24.21794597 5.15544597 26.4375 7.375 C26.0625 9.5 26.0625 9.5 25.4375 11.375 C23.80989583 10.62630208 22.18229167 9.87760417 20.5546875 9.12890625 C3.99427116 3.23193143 -17.23911289 7.99052759 -33.42578125 12.82421875 C-35.5625 13.375 -35.5625 13.375 -38.5625 13.375 C-38.5625 11.395 -38.5625 9.415 -38.5625 7.375 C-30.57991646 3.95598903 -25.35052278 2.44565907 -16.9375 5.25 C-16.15375 5.29125 -15.37 5.3325 -14.5625 5.375 C-13.70011719 4.5603125 -12.83773437 3.745625 -11.94921875 2.90625 C-8.15484851 -0.38629913 -4.84536321 -0.24544198 0 0 Z " fill="#E6B200" transform="translate(101.5625,63.625)"/>
<path d="M0 0 C2.33764674 3.65257304 2.53302434 6.73580524 2 11 C-0.4375 13.1875 -0.4375 13.1875 -3 15 C-4.06754834 16.93400917 -4.06754834 16.93400917 -4 19 C-3.3507041 20.34187818 -2.68268138 21.67479497 -2 23 C-1.875 25.75 -1.875 25.75 -2 28 C-4.97 28.66 -7.94 29.32 -11 30 C-10.979375 29.236875 -10.95875 28.47375 -10.9375 27.6875 C-10.87057159 24.89814214 -10.87057159 24.89814214 -12 22 C-12.86625 22.2475 -12.86625 22.2475 -13.75 22.5 C-16 23 -16 23 -20 23 C-21.921875 20.4453125 -21.921875 20.4453125 -23.75 17.125 C-24.36359375 16.03445312 -24.9771875 14.94390625 -25.609375 13.8203125 C-27 11 -27 11 -27 9 C-22.28971963 10.8317757 -22.28971963 10.8317757 -20.0625 12.125 C-17.16117278 13.35586609 -15.12459603 13.3826036 -12 13 C-9.26513223 11.26212435 -9.26513223 11.26212435 -7 9 C-6.46375 8.525625 -5.9275 8.05125 -5.375 7.5625 C-3.59895851 5.54427104 -2.3442398 3.32186874 -1 1 C-0.67 0.67 -0.34 0.34 0 0 Z " fill="#F4D87B" transform="translate(80,37)"/>
<path d="M0 0 C1.98 0 3.96 0 6 0 C5.67 0.66 5.34 1.32 5 2 C3.35 1.67 1.7 1.34 0 1 C0 0.67 0 0.34 0 0 Z M4 2 C5.875 2.1875 5.875 2.1875 8 3 C8.70211894 4.65204456 9.36971413 6.31923769 10 8 C10.99 8.33 11.98 8.66 13 9 C13 11.97 13 14.94 13 18 C12.34 18 11.68 18 11 18 C11 17.01 11 16.02 11 15 C9.948125 15.61875 8.89625 16.2375 7.8125 16.875 C1.13249248 20.63500423 -4.61499167 22.21001045 -12.27734375 20.48828125 C-12.84582031 20.32714844 -13.41429688 20.16601562 -14 20 C-14.33 20.66 -14.66 21.32 -15 22 C-15.99 21.67 -16.98 21.34 -18 21 C-18.33 17.7 -18.66 14.4 -19 11 C-18.67 11.99 -18.34 12.98 -18 14 C-10.91768769 13.63988242 -5.26958091 11.76159305 1.27734375 9.05859375 C4 8 4 8 6 8 C6 6.68 6 5.36 6 4 C5.34 4 4.68 4 4 4 C4 3.34 4 2.68 4 2 Z " fill="#050505" transform="translate(116,100)"/>
<path d="M0 0 C-4.2 9.1 -4.2 9.1 -8 11 C-8.46898963 13.8159849 -8.46898963 13.8159849 -8.625 17.0625 C-8.69976562 18.16722656 -8.77453125 19.27195312 -8.8515625 20.41015625 C-8.90054688 21.26480469 -8.94953125 22.11945313 -9 23 C-11.15377564 20.37801226 -12.40072174 18.35595828 -13 15 C-13.04898438 15.91523437 -13.09796875 16.83046875 -13.1484375 17.7734375 C-13.22320312 18.96195313 -13.29796875 20.15046875 -13.375 21.375 C-13.44460937 22.55835937 -13.51421875 23.74171875 -13.5859375 24.9609375 C-14 28 -14 28 -16 30 C-16.33 30.99 -16.66 31.98 -17 33 C-17.66 33 -18.32 33 -19 33 C-21.81366788 26.36778286 -23.99560116 19.12022743 -22 12 C-18.80183436 8.47514002 -15.151824 6.27257735 -11 4 C-9.80890625 3.319375 -9.80890625 3.319375 -8.59375 2.625 C-5.59381856 1.01309654 -3.44160949 0 0 0 Z " fill="#C0BEB5" transform="translate(67,79)"/>
<path d="M0 0 C0.495 5.445 0.495 5.445 1 11 C-3.625 14 -3.625 14 -7 14 C-2.94568308 15.15837626 -0.78187881 14.83691257 3 13 C1 15.625 1 15.625 -2 18 C-5.8125 17.25 -5.8125 17.25 -7.8984375 16.5625 C-13.85704553 14.96763094 -21.13217212 17.6009577 -27 19 C-26.01 18.01 -25.02 17.02 -24 16 C-24.66 15.34 -25.32 14.68 -26 14 C-26.625 11.875 -26.625 11.875 -27 10 C-27.55429687 10.30035156 -28.10859375 10.60070313 -28.6796875 10.91015625 C-29.76636719 11.48056641 -29.76636719 11.48056641 -30.875 12.0625 C-31.59429687 12.44535156 -32.31359375 12.82820313 -33.0546875 13.22265625 C-33.69664063 13.47917969 -34.33859375 13.73570313 -35 14 C-35.66 13.67 -36.32 13.34 -37 13 C-35.12762629 12.03654556 -33.2519701 11.07946898 -31.375 10.125 C-29.80878906 9.32449219 -29.80878906 9.32449219 -28.2109375 8.5078125 C-20.30285714 4.79428571 -20.30285714 4.79428571 -16.625 5.375 C-16.08875 5.58125 -15.5525 5.7875 -15 6 C-16.98 6.33 -18.96 6.66 -21 7 C-20.01 8.485 -20.01 8.485 -19 10 C-19 11.32 -19 12.64 -19 14 C-16.36 13.67 -13.72 13.34 -11 13 C-11.020625 12.21625 -11.04125 11.4325 -11.0625 10.625 C-11 8 -11 8 -10 6 C-10.04125 5.175 -10.0825 4.35 -10.125 3.5 C-10.08375 2.675 -10.0425 1.85 -10 1 C-6.1496895 -1.56687367 -4.41430237 -0.83288724 0 0 Z " fill="#443F1D" transform="translate(89,52)"/>
<path d="M0 0 C1.41750563 0.11509661 2.83401169 0.24253658 4.25 0.375 C5.03890625 0.44460937 5.8278125 0.51421875 6.640625 0.5859375 C9.09233028 1.01620366 10.79875098 1.87860899 13 3 C14.2684375 2.9071875 14.2684375 2.9071875 15.5625 2.8125 C18 3 18 3 19.8125 5 C21.36453872 8.92093992 21.2134742 11.80167404 21 16 C20.34 15.34 19.68 14.68 19 14 C18.34 16.97 17.68 19.94 17 23 C16.401875 22.236875 15.80375 21.47375 15.1875 20.6875 C12.83408465 17.79616114 10.43734072 15.37979589 7.625 12.9375 C4.14036209 9.03802424 2.15828764 4.72986441 0 0 Z " fill="#C9C6BD" transform="translate(113,73)"/>
<path d="M0 0 C3 1 3 1 4.1875 3.25 C4.99938294 5.99791147 5.16260121 8.15447889 5 11 C4.34 11 3.68 11 3 11 C2.34 11.66 1.68 12.32 1 13 C-4.79343344 14.8168004 -9.96026251 15.26107727 -16 15.125 C-17.16208984 15.11146484 -17.16208984 15.11146484 -18.34765625 15.09765625 C-20.23190843 15.07439388 -22.11599832 15.0385364 -24 15 C-23.67 16.32 -23.34 17.64 -23 19 C-24.5 17.6875 -24.5 17.6875 -26 16 C-26 15.01 -26 14.02 -26 13 C-24.94941406 12.54109375 -23.89882813 12.0821875 -22.81640625 11.609375 C-20.66134655 10.66796364 -18.50675221 9.72553603 -16.35327148 8.78051758 C-13.23100492 7.41038416 -10.10798655 6.04578296 -6.96875 4.71484375 C-2.75647134 3.22197862 -2.75647134 3.22197862 0 0 Z " fill="#030202" transform="translate(84,112)"/>
<path d="M0 0 C-0.61754259 1.31602523 -1.24428742 2.62773556 -1.875 3.9375 C-2.22304687 4.66839844 -2.57109375 5.39929688 -2.9296875 6.15234375 C-4 8 -4 8 -6 9 C-6 8.01 -6 7.02 -6 6 C-10.59487392 8.03029313 -13.55754836 10.36630104 -17 14 C-17.99 14.495 -17.99 14.495 -19 15 C-19.33 14.01 -19.66 13.02 -20 12 C-22.05362055 17.08940744 -23.43179252 21.54520815 -24 27 C-24.66 27 -25.32 27 -26 27 C-26.99 29.475 -26.99 29.475 -28 32 C-27.01 32.33 -26.02 32.66 -25 33 C-27.64 33.33 -30.28 33.66 -33 34 C-32.84152588 33.42475586 -32.68305176 32.84951172 -32.51977539 32.25683594 C-32.02086674 30.09060223 -31.80111676 28.10677317 -31.68359375 25.890625 C-31.62075195 24.75947266 -31.62075195 24.75947266 -31.55664062 23.60546875 C-31.51732422 22.82816406 -31.47800781 22.05085938 -31.4375 21.25 C-31.39431641 20.45722656 -31.35113281 19.66445312 -31.30664062 18.84765625 C-31.20097009 16.89862185 -31.10002034 14.94933252 -31 13 C-29 16 -29 16 -27 22 C-26.34 17.38 -25.68 12.76 -25 8 C-24.34 8.33 -23.68 8.66 -23 9 C-21.35 7.02 -19.7 5.04 -18 3 C-17.31292445 5.49064888 -17 7.37886292 -17 10 C-16.32904297 9.16855469 -16.32904297 9.16855469 -15.64453125 8.3203125 C-10.88223346 2.61367847 -7.75600785 -0.44320045 0 0 Z " fill="#0F1C0D" transform="translate(84,78)"/>
<path d="M0 0 C0.5775 0.78375 1.155 1.5675 1.75 2.375 C3.82897637 4.80047244 5.09040333 5.85694417 8 7 C8 7.66 8 8.32 8 9 C8.99 8.67 9.98 8.34 11 8 C15.89655131 9.71095712 17.74761458 13.58308816 20 18 C21.25 21.75 21.25 21.75 22 25 C22.20625 25.804375 22.4125 26.60875 22.625 27.4375 C22.74875 27.953125 22.8725 28.46875 23 29 C18.82289638 27.62731224 16.418038 25.77260976 13.375 22.625 C12.61960937 21.85414063 11.86421875 21.08328125 11.0859375 20.2890625 C9.24212507 18.26570279 7.60091614 16.21665312 6 14 C5.505 13.38125 5.01 12.7625 4.5 12.125 C1.62328843 8.04965861 0 5.03946643 0 0 Z " fill="#1F1F1D" transform="translate(61,142)"/>
<path d="M0 0 C2.3125 2.5 2.3125 2.5 4 5 C2.4114658 9.28904235 -0.43127368 11.32345526 -4 14 C-4.66 14 -5.32 14 -6 14 C-6 14.66 -6 15.32 -6 16 C-8.31 16.33 -10.62 16.66 -13 17 C-13 16.34 -13 15.68 -13 15 C-12.071875 14.4225 -11.14375 13.845 -10.1875 13.25 C-6.69157513 10.78228833 -5.5966213 8.90285207 -4 5 C-8.16162543 5.2448015 -10.41155817 5.49562129 -13.625 8.25 C-14.40875 9.1575 -15.1925 10.065 -16 11 C-17.66666667 12.66666667 -19.33333333 14.33333333 -21 16 C-20.25243351 7.17871543 -20.25243351 7.17871543 -17 3 C-14.2578125 1.85546875 -14.2578125 1.85546875 -11.125 1.1875 C-10.09632812 0.95417969 -9.06765625 0.72085938 -8.0078125 0.48046875 C-5.22446533 0.03585615 -2.80403214 -0.28573039 0 0 Z " fill="#ACA7A0" transform="translate(87,74)"/>
<path d="M0 0 C2.77330797 2.39512961 3.68031779 4.62316612 5 8 C5.85726979 9.77948425 6.7322722 11.55053724 7.625 13.3125 C8.07101563 14.19550781 8.51703125 15.07851563 8.9765625 15.98828125 C9.31429687 16.65214844 9.65203125 17.31601562 10 18 C8.25048432 18.95921722 6.50036756 19.91733817 4.75 20.875 C3.77546875 21.40867187 2.8009375 21.94234375 1.796875 22.4921875 C-0.45130408 23.70419466 -2.7072805 24.87547567 -5 26 C-5.37511719 25.55269531 -5.75023437 25.10539062 -6.13671875 24.64453125 C-8.62549453 21.7043906 -11.08631429 18.9174385 -13.875 16.25 C-16 14 -16 14 -16 11 C-14.5459375 12.2065625 -14.5459375 12.2065625 -13.0625 13.4375 C-8.89965554 16.45726832 -5.04470785 16.87416828 0 17 C0.77313045 11.0885256 1.14819277 5.8685408 0 0 Z " fill="#BE9408" transform="translate(51,43)"/>
<path d="M0 0 C2.4375 0.375 2.4375 0.375 5 1 C7.5709975 6.14199499 6.67341234 14.34727626 5.29296875 19.78515625 C4.75720224 21.25056328 4.1842738 22.70348119 3.55859375 24.1328125 C2.87211516 26.4274752 3.24849789 27.76042418 4 30 C2.02 30.99 2.02 30.99 0 32 C-1 31 -1 31 -1.02172852 28.04077148 C-0.97459717 26.74727783 -0.92746582 25.45378418 -0.87890625 24.12109375 C-0.85529526 23.4344313 -0.83168427 22.74776886 -0.80735779 22.04029846 C-0.7305582 19.83916372 -0.64660497 17.63836656 -0.5625 15.4375 C-0.50929557 13.94858443 -0.45655507 12.45965221 -0.40429688 10.97070312 C-0.27492148 7.31359327 -0.13912762 3.65675328 0 0 Z " fill="#BE715B" transform="translate(134,104)"/>
<path d="M0 0 C0.99 0.33 1.98 0.66 3 1 C3 1.33 3 1.66 3 2 C4.98 2 6.96 2 9 2 C8.43359375 3.89453125 8.43359375 3.89453125 7 6 C3.84765625 7.01171875 3.84765625 7.01171875 0.0625 7.6875 C-5.02950487 8.60800639 -5.02950487 8.60800639 -10 10 C-12.6875 8.0625 -12.6875 8.0625 -15 6 C-15.66 7.32 -16.32 8.64 -17 10 C-17.66 7.69 -18.32 5.38 -19 3 C-18.34 2.34 -17.68 1.68 -17 1 C-15.34370854 1 -13.68742533 1.01554365 -12.03125 1.03515625 C-10.8659375 1.04417969 -9.700625 1.05320312 -8.5 1.0625 C-7.3346875 1.07410156 -6.169375 1.08570312 -4.96875 1.09765625 C-2.07031796 1.20914473 -2.07031796 1.20914473 0 0 Z " fill="#281E19" transform="translate(117,119)"/>
<path d="M0 0 C0.88558594 -0.00773437 1.77117187 -0.01546875 2.68359375 -0.0234375 C8.57388814 -0.00613854 13.7932856 0.78852436 19.5 2.25 C19.17 3.24 18.84 4.23 18.5 5.25 C17.96375 5.105625 17.4275 4.96125 16.875 4.8125 C8.74002455 2.88579529 0.80021175 3.06463547 -7.5 3.25 C-7.83 3.91 -8.16 4.57 -8.5 5.25 C-11.0625 5.875 -11.0625 5.875 -13.5 6.25 C-10.035 8.23 -10.035 8.23 -6.5 10.25 C-7.428125 10.37375 -7.428125 10.37375 -8.375 10.5 C-9.07625 10.7475 -9.7775 10.995 -10.5 11.25 C-10.768125 11.848125 -11.03625 12.44625 -11.3125 13.0625 C-13.22115628 16.57844577 -15.91532046 17.5519939 -19.5 19.25 C-20.49 18.92 -21.48 18.59 -22.5 18.25 C-21.9225 17.86328125 -21.345 17.4765625 -20.75 17.078125 C-20.0075 16.55734375 -19.265 16.0365625 -18.5 15.5 C-17.7575 14.98953125 -17.015 14.4790625 -16.25 13.953125 C-15.6725 13.39109375 -15.095 12.8290625 -14.5 12.25 C-14.5 8.48312136 -14.73537317 7.33809695 -16.5 4.25 C-18.15 4.25 -19.8 4.25 -21.5 4.25 C-16.33583849 -0.91416151 -6.83955376 -0.05973409 0 0 Z " fill="#0C0B05" transform="translate(103.5,69.75)"/>
<path d="M0 0 C0.66 4.29 1.32 8.58 2 13 C-1.72170379 12.25565924 -3.80270004 11.78398291 -6.98828125 10.15234375 C-7.69404297 9.79462891 -8.39980469 9.43691406 -9.12695312 9.06835938 C-9.84818359 8.69517578 -10.56941406 8.32199219 -11.3125 7.9375 C-12.05306641 7.56044922 -12.79363281 7.18339844 -13.55664062 6.79492188 C-15.37387522 5.86871843 -17.18732404 4.93509371 -19 4 C-19 3.67 -19 3.34 -19 3 C-16.96040523 2.49161436 -14.91820862 1.99366114 -12.875 1.5 C-11.73804688 1.2215625 -10.60109375 0.943125 -9.4296875 0.65625 C-6 0 -6 0 0 0 Z " fill="#7CADA5" transform="translate(68,173)"/>
<path d="M0 0 C-0.66 0.66 -1.32 1.32 -2 2 C-1.67958603 4.60280568 -1.67958603 4.60280568 -1 7 C0.32 6.67 1.64 6.34 3 6 C3 4.35 3 2.7 3 1 C7.29 1.33 11.58 1.66 16 2 C14.02 2.99 14.02 2.99 12 4 C11.67 5.65 11.34 7.3 11 9 C4.4 9 -2.2 9 -9 9 C-10.35439668 6.29120665 -10.06501451 3.99066732 -10 1 C-6.78548731 -0.60725635 -3.56387464 -0.05748185 0 0 Z " fill="#B58600" transform="translate(102,54)"/>
<path d="M0 0 C-0.66 0 -1.32 0 -2 0 C-2 0.66 -2 1.32 -2 2 C-2.83144531 2.17015625 -3.66289063 2.3403125 -4.51953125 2.515625 C-5.60621094 2.75796875 -6.69289062 3.0003125 -7.8125 3.25 C-8.89144531 3.48203125 -9.97039062 3.7140625 -11.08203125 3.953125 C-14.3059958 5.10978162 -15.29029522 6.09650135 -17 9 C-17 8.01 -17 7.02 -17 6 C-19.58852107 7.24008219 -22.17046417 8.49147214 -24.75 9.75 C-25.47960937 10.09804687 -26.20921875 10.44609375 -26.9609375 10.8046875 C-30.99543124 12.78525715 -33.90712454 14.66690121 -37 18 C-37.66 18 -38.32 18 -39 18 C-39 19.98 -39 21.96 -39 24 C-39.99 23.67 -40.98 23.34 -42 23 C-42.05391993 21.20866022 -42.09275571 19.41686101 -42.125 17.625 C-42.14820313 16.62726563 -42.17140625 15.62953125 -42.1953125 14.6015625 C-42 12 -42 12 -40 10 C-39.01 11.485 -39.01 11.485 -38 13 C-35.31836646 13 -34.45984104 11.97016763 -32.3125 10.375 C-24.27719296 4.88810749 -9.71376051 -2.89931414 0 0 Z " fill="#23211C" transform="translate(84,73)"/>
<path d="M0 0 C0.66 0 1.32 0 2 0 C2.36629408 4.27343092 1.40814077 6.48812804 -1 10 C-0.01 10.33 0.98 10.66 2 11 C1.01 11 0.02 11 -1 11 C-0.34 12.32 0.32 13.64 1 15 C1 14.34 1 13.68 1 13 C6.02125926 12.22083908 9.97703996 11.86983399 15 13 C12.50494038 15.49505962 11.32671112 15.35948376 7.875 15.625 C6.96492188 15.69976562 6.05484375 15.77453125 5.1171875 15.8515625 C4.41851562 15.90054688 3.71984375 15.94953125 3 16 C2.67 17.65 2.34 19.3 2 21 C0.68 20.34 -0.64 19.68 -2 19 C-2 18.34 -2 17.68 -2 17 C-2.99 17.33 -3.98 17.66 -5 18 C-5.25394531 17.38511719 -5.50789063 16.77023438 -5.76953125 16.13671875 C-6.28580078 14.92435547 -6.28580078 14.92435547 -6.8125 13.6875 C-7.14894531 12.88699219 -7.48539063 12.08648437 -7.83203125 11.26171875 C-8.98200704 9.03484255 -10.13626961 7.65012233 -12 6 C-11.01 6 -10.02 6 -9 6 C-8.34 5.01 -7.68 4.02 -7 3 C-7 4.32 -7 5.64 -7 7 C-4.83125748 6.49396008 -3.00032373 6.00016187 -1 5 C-0.34444881 2.47266765 -0.34444881 2.47266765 0 0 Z " fill="#130E0C" transform="translate(59,114)"/>
<path d="M0 0 C0.99 0 1.98 0 3 0 C3.103125 0.5775 3.20625 1.155 3.3125 1.75 C3.86160242 4.0503803 3.86160242 4.0503803 5.40234375 5.73046875 C7.39066819 8.55495897 8.24406598 11.26318657 9.25 14.5625 C9.78367187 16.26599609 9.78367187 16.26599609 10.328125 18.00390625 C11 21 11 21 10 24 C4.24122029 21.59846633 2.05058926 16.45137493 -0.3125 10.9375 C-1.11063388 7.52729159 -1.20532489 4.49052314 -1 1 C-0.67 0.67 -0.34 0.34 0 0 Z " fill="#C87962" transform="translate(46,118)"/>
<path d="M0 0 C4.79838421 0 7.88112233 0.30163262 12.375 1.5 C13.43460938 1.7784375 14.49421875 2.056875 15.5859375 2.34375 C16.38257813 2.5603125 17.17921875 2.776875 18 3 C14.33078359 6.16667833 10.72422512 8.25793256 6.3125 10.25 C5.17425781 10.77078125 4.03601563 11.2915625 2.86328125 11.828125 C0 13 0 13 -2 13 C-1.34 8.71 -0.68 4.42 0 0 Z " fill="#83B3A9" transform="translate(129,173)"/>
<path d="M0 0 C2.28089894 0.76029965 4.47545919 1.60194019 6.671875 2.578125 C6.671875 3.568125 6.671875 4.558125 6.671875 5.578125 C11.291875 5.578125 15.911875 5.578125 20.671875 5.578125 C20.671875 5.908125 20.671875 6.238125 20.671875 6.578125 C19.51558594 6.66900391 19.51558594 6.66900391 18.3359375 6.76171875 C17.33304688 6.84550781 16.33015625 6.92929687 15.296875 7.015625 C13.80027344 7.13744141 13.80027344 7.13744141 12.2734375 7.26171875 C9.69259887 7.42778126 9.69259887 7.42778126 7.671875 8.578125 C7.72988281 9.19300781 7.78789063 9.80789062 7.84765625 10.44140625 C7.98461276 12.89488427 8.00812397 15.14247541 7.671875 17.578125 C5.609375 19.703125 5.609375 19.703125 2.671875 20.578125 C-1.140625 20.265625 -1.140625 20.265625 -4.328125 19.578125 C-1.94505025 17.19505025 -0.57408003 17.14616713 2.671875 16.578125 C3.331875 16.248125 3.991875 15.918125 4.671875 15.578125 C4.671875 11.948125 4.671875 8.318125 4.671875 4.578125 C0.02134628 4.30879979 0.02134628 4.30879979 -4.328125 5.578125 C-4.328125 9.538125 -4.328125 13.498125 -4.328125 17.578125 C-4.658125 17.578125 -4.988125 17.578125 -5.328125 17.578125 C-5.328125 15.928125 -5.328125 14.278125 -5.328125 12.578125 C-5.988125 12.578125 -6.648125 12.578125 -7.328125 12.578125 C-7.328125 11.588125 -7.328125 10.598125 -7.328125 9.578125 C-7.988125 9.248125 -8.648125 8.918125 -9.328125 8.578125 C-8.39800959 5.53411093 -7.30110265 3.54537064 -5.265625 1.078125 C-2.328125 -0.421875 -2.328125 -0.421875 0 0 Z " fill="#825201" transform="translate(84.328125,47.421875)"/>
<path d="M0 0 C0.33 3.63 0.66 7.26 1 11 C-1.1875 12.625 -1.1875 12.625 -4 14 C-6.475 13.01 -6.475 13.01 -9 12 C-9.33 8.37 -9.66 4.74 -10 1 C-6.1496895 -1.56687367 -4.41430237 -0.83288724 0 0 Z " fill="#57110B" transform="translate(89,52)"/>
<path d="M0 0 C0.66 0.33 1.32 0.66 2 1 C1.64230839 3.59326419 1.26377332 4.75581077 -0.68359375 6.55859375 C-6.80214452 10.36592129 -15.11733008 10.56424316 -22 9 C-22.33 7.68 -22.66 6.36 -23 5 C-22.08476563 4.86722656 -21.16953125 4.73445312 -20.2265625 4.59765625 C-19.03804688 4.42105469 -17.84953125 4.24445313 -16.625 4.0625 C-15.44164063 3.88847656 -14.25828125 3.71445313 -13.0390625 3.53515625 C-10.09297619 3.16537214 -10.09297619 3.16537214 -8 2 C-5.3276379 1.86584528 -2.67749512 1.95681459 0 2 C0 1.34 0 0.68 0 0 Z " fill="#E4A788" transform="translate(109,149)"/>
<path d="M0 0 C0.495 0.309375 0.99 0.61875 1.5 0.9375 C0.5 2.9375 0.5 2.9375 -1.31005859 3.62353516 C-2.08172363 3.82253418 -2.85338867 4.0215332 -3.6484375 4.2265625 C-4.90914062 4.55527344 -4.90914062 4.55527344 -6.1953125 4.890625 C-7.07960938 5.11234375 -7.96390625 5.3340625 -8.875 5.5625 C-9.7515625 5.79195313 -10.628125 6.02140625 -11.53125 6.2578125 C-18.07003348 7.9375 -18.07003348 7.9375 -21.5 7.9375 C-21.5 5.9575 -21.5 3.9775 -21.5 1.9375 C-13.74314755 -1.38482835 -8.09500968 -3.44037911 0 0 Z " fill="#F5E6B4" transform="translate(84.5,69.0625)"/>
<path d="M0 0 C2.33764674 3.65257304 2.53302434 6.73580524 2 11 C-0.375 13.1875 -0.375 13.1875 -3 15 C-4.31165257 17.11660427 -4.31165257 17.11660427 -5 19 C-5.66 16.69 -6.32 14.38 -7 12 C-7.845625 12.680625 -8.69125 13.36125 -9.5625 14.0625 C-13.75276493 16.42428569 -15.41543202 16.16698094 -20 15 C-24.5823389 13.67621321 -24.5823389 13.67621321 -26.3125 10.875 C-26.539375 10.25625 -26.76625 9.6375 -27 9 C-22.28971963 10.8317757 -22.28971963 10.8317757 -20.0625 12.125 C-17.16117278 13.35586609 -15.12459603 13.3826036 -12 13 C-9.26513223 11.26212435 -9.26513223 11.26212435 -7 9 C-6.46375 8.525625 -5.9275 8.05125 -5.375 7.5625 C-3.59895851 5.54427104 -2.3442398 3.32186874 -1 1 C-0.67 0.67 -0.34 0.34 0 0 Z " fill="#F4D87A" transform="translate(80,37)"/>
<path d="M0 0 C0.66 0.66 1.32 1.32 2 2 C1.67 2.99 1.34 3.98 1 5 C5.68359706 4.55833628 5.68359706 4.55833628 10 2.875 C13.10362101 1.51716581 15.75732526 2.3764087 19 3 C19 3.33 19 3.66 19 4 C18.05125 4.28875 17.1025 4.5775 16.125 4.875 C12.94788422 5.76825109 12.94788422 5.76825109 11 8 C10.01 8 9.02 8 8 8 C8 9.65 8 11.3 8 13 C7.01 13.33 6.02 13.66 5 14 C4.67 14.99 4.34 15.98 4 17 C4 16.34 4 15.68 4 15 C3.01 15 2.02 15 1 15 C0.87882812 14.43410156 0.75765625 13.86820313 0.6328125 13.28515625 C0.38144531 12.18494141 0.38144531 12.18494141 0.125 11.0625 C-0.03742187 10.33160156 -0.19984375 9.60070312 -0.3671875 8.84765625 C-0.82961523 6.79299706 -0.82961523 6.79299706 -3 6 C-2.34 6 -1.68 6 -1 6 C-0.67 4.02 -0.34 2.04 0 0 Z " fill="#272423" transform="translate(51,106)"/>
<path d="M0 0 C0.66 0 1.32 0 2 0 C2.185625 1.299375 2.37125 2.59875 2.5625 3.9375 C3.66080576 9.0710625 6.18231087 12.30410421 9.5390625 16.25 C11 18 11 18 11 19 C9.58249437 18.88490339 8.16598831 18.75746342 6.75 18.625 C5.96109375 18.55539063 5.1721875 18.48578125 4.359375 18.4140625 C1.914123 17.98492887 0.15163097 17.21399362 -2 16 C-2.05384521 13.70858714 -2.09272087 11.41681812 -2.125 9.125 C-2.14820312 7.84882813 -2.17140625 6.57265625 -2.1953125 5.2578125 C-2 2 -2 2 0 0 Z " fill="#77A79F" transform="translate(72,170)"/>
<path d="M0 0 C3 1 3 1 4 3 C4.31658385 7.73944653 4.19110347 12.38447404 3 17 C-5.03571429 19.27678571 -5.03571429 19.27678571 -9 18 C-8.60167969 17.53851563 -8.20335938 17.07703125 -7.79296875 16.6015625 C-3.55089311 11.37895842 -1.52491806 6.5277194 0 0 Z " fill="#79A99F" transform="translate(123,170)"/>
<path d="M0 0 C3.24075217 0.28806686 4.56728838 0.91843408 6.8125 3.25 C6.8125 4.24 6.8125 5.23 6.8125 6.25 C6.22758789 6.3001123 5.64267578 6.35022461 5.04003906 6.40185547 C2.38004819 6.63451235 -0.27865349 6.87962436 -2.9375 7.125 C-3.85789062 7.20363281 -4.77828125 7.28226562 -5.7265625 7.36328125 C-7.06074219 7.48896484 -7.06074219 7.48896484 -8.421875 7.6171875 C-9.64729004 7.72716064 -9.64729004 7.72716064 -10.89746094 7.83935547 C-13.30512049 8.27109144 -15.06659392 9.05326384 -17.1875 10.25 C-15.22690255 6.72092459 -13.39411678 3.74403528 -10.1875 1.25 C-6.76756166 0.4900137 -3.48576666 0.27339346 0 0 Z " fill="#262422" transform="translate(77.1875,96.75)"/>
<path d="M0 0 C0.33 2.31 0.66 4.62 1 7 C0.03578125 7.47050781 -0.9284375 7.94101563 -1.921875 8.42578125 C-3.19802296 9.05447179 -4.47405874 9.68339007 -5.75 10.3125 C-6.38421875 10.62123047 -7.0184375 10.92996094 -7.671875 11.24804688 C-11.03147912 12.910351 -14.09858921 14.61879165 -17 17 C-17 13.70707898 -16.58640667 11.6371007 -14.328125 9.18359375 C-12.2652127 7.38823962 -10.15540105 5.68276112 -8 4 C-7.071875 3.195625 -6.14375 2.39125 -5.1875 1.5625 C-3 0 -3 0 0 0 Z " fill="#B48900" transform="translate(63,71)"/>
<path d="M0 0 C0.33 0 0.66 0 1 0 C1.33 2.31 1.66 4.62 2 7 C8.6 7 15.2 7 22 7 C22 5.35 22 3.7 22 2 C24.375 1.375 24.375 1.375 27 1 C27.66 1.66 28.32 2.32 29 3 C28.64644564 5.26274788 28.02455574 6.95088852 27 9 C27.66 9 28.32 9 29 9 C29 9.66 29 10.32 29 11 C29.66 11.33 30.32 11.66 31 12 C28.03 11.505 28.03 11.505 25 11 C24.67 11.66 24.34 12.32 24 13 C24 11.68 24 10.36 24 9 C16.41 9 8.82 9 1 9 C0.67 6.03 0.34 3.06 0 0 Z " fill="#754301" transform="translate(91,56)"/>
<path d="M0 0 C-0.61754259 1.31602523 -1.24428742 2.62773556 -1.875 3.9375 C-2.22304687 4.66839844 -2.57109375 5.39929688 -2.9296875 6.15234375 C-4 8 -4 8 -6 9 C-6 8.01 -6 7.02 -6 6 C-10.59487392 8.03029313 -13.55754836 10.36630104 -17 14 C-17.99 14.495 -17.99 14.495 -19 15 C-19 13.35 -19 11.7 -19 10 C-19.66 10 -20.32 10 -21 10 C-20.39816251 7.97954558 -19.72693904 5.97888961 -19 4 C-18.34 3.67 -17.68 3.34 -17 3 C-17 5.31 -17 7.62 -17 10 C-16.55269531 9.44570312 -16.10539062 8.89140625 -15.64453125 8.3203125 C-10.88223346 2.61367847 -7.75600785 -0.44320045 0 0 Z " fill="#14160E" transform="translate(84,78)"/>
<path d="M0 0 C2.8125 -0.3125 2.8125 -0.3125 6 0 C8.75613818 2.93988073 9.16677466 5.42304401 9.1875 9.3125 C9.125625 10.529375 9.06375 11.74625 9 13 C8.34 12.34 7.68 11.68 7 11 C6.34 13.97 5.68 16.94 5 20 C2 17 2 17 1.77734375 15.01953125 C1.83019531 14.29121094 1.88304688 13.56289062 1.9375 12.8125 C2.11253291 8.17032278 1.29461949 4.4502545 0 0 Z " fill="#ADA9A1" transform="translate(125,76)"/>
<path d="M0 0 C1.50662097 3.01324195 1.17770373 5.68286377 1 9 C0.34 9.66 -0.32 10.32 -1 11 C-1.40047444 13.32275177 -1.7397104 15.65739357 -2 18 C-2.33 18 -2.66 18 -3 18 C-3 15.36 -3 12.72 -3 10 C-4.65 9.67 -6.3 9.34 -8 9 C-8 7.35 -8 5.7 -8 4 C-8.99 3.67 -9.98 3.34 -11 3 C-9.73160474 2.49384702 -8.46016898 1.99530901 -7.1875 1.5 C-6.12595703 1.08234375 -6.12595703 1.08234375 -5.04296875 0.65625 C-3 0 -3 0 0 0 Z " fill="#111111" transform="translate(132,99)"/>
<path d="M0 0 C3.70682293 1.14734995 4.50820249 3.27651301 6.35546875 6.56640625 C8.20283631 9.83482577 10.41451276 12.78097464 12.625 15.8125 C13.285 15.4825 13.945 15.1525 14.625 14.8125 C15.615 16.7925 16.605 18.7725 17.625 20.8125 C16.965 21.1425 16.305 21.4725 15.625 21.8125 C15.625 21.1525 15.625 20.4925 15.625 19.8125 C14.965 19.8125 14.305 19.8125 13.625 19.8125 C13.625 19.1525 13.625 18.4925 13.625 17.8125 C12.965 17.8125 12.305 17.8125 11.625 17.8125 C10.965 18.4725 10.305 19.1325 9.625 19.8125 C8.635 17.5025 7.645 15.1925 6.625 12.8125 C5.635 13.3075 5.635 13.3075 4.625 13.8125 C3.305 10.5125 1.985 7.2125 0.625 3.8125 C-1.355 4.4725 -3.335 5.1325 -5.375 5.8125 C-3.12126866 1.06780244 -3.12126866 1.06780244 0 0 Z " fill="#2B3527" transform="translate(109.375,71.1875)"/>
<path d="M0 0 C0.33 0.66 0.66 1.32 1 2 C0.06553465 4.03144641 -0.93224776 6.03533587 -2 8 C-2.66 8 -3.32 8 -4 8 C-4 9.98 -4 11.96 -4 14 C-6.31 14 -8.62 14 -11 14 C-11 13.34 -11 12.68 -11 12 C-11.99 11.67 -12.98 11.34 -14 11 C-13.34 9.35 -12.68 7.7 -12 6 C-9 7 -9 7 -8 9 C-8 8.34 -8 7.68 -8 7 C-8.66 6.34 -9.32 5.68 -10 5 C-8.3603125 4.87625 -8.3603125 4.87625 -6.6875 4.75 C-2.96723336 4.36310791 -2.96723336 4.36310791 -1.0625 1.9375 C-0.711875 1.298125 -0.36125 0.65875 0 0 Z " fill="#2B3D17" transform="translate(134,53)"/>
<path d="M0 0 C0.66 0.66 1.32 1.32 2 2 C1.35933594 2.11214844 0.71867187 2.22429687 0.05859375 2.33984375 C-6.80605476 3.90510638 -9.78830999 6.33240086 -13.72265625 12.13671875 C-14.14417969 12.75160156 -14.56570312 13.36648437 -15 14 C-15.33 14 -15.66 14 -16 14 C-15.18509895 4.38416764 -15.18509895 4.38416764 -12 1 C-7.78498618 -0.57276635 -4.3162292 -1.43874307 0 0 Z " fill="#C3C0B8" transform="translate(82,76)"/>
<path d="M0 0 C0 0.99 0 1.98 0 3 C-7.92 4.32 -15.84 5.64 -24 7 C-22 3 -22 3 -19.0234375 1.953125 C-12.58781926 0.71285596 -6.56023667 -0.3936142 0 0 Z " fill="#674F41" transform="translate(109,148)"/>
<path d="M0 0 C6.14154225 0.58490879 12.00679849 1.54066252 18 3 C17.68359375 4.88671875 17.68359375 4.88671875 17 7 C14.0625 8.8125 14.0625 8.8125 11 10 C10.34 9.67 9.68 9.34 9 9 C10.32 7.68 11.64 6.36 13 5 C7.72 5 2.44 5 -3 5 C-2.01 3.35 -1.02 1.7 0 0 Z " fill="#161515" transform="translate(66,108)"/>
<path d="M0 0 C0.66 0 1.32 0 2 0 C2.4125 0.928125 2.825 1.85625 3.25 2.8125 C5.0213708 6.03892539 5.82164478 7.28197015 9 9 C11.02441341 9.54093638 13.03683002 9.99527002 15.09765625 10.375 C17.37708293 11.12388762 18.43979514 12.21135393 20 14 C13.20814444 14.50103853 7.56826358 14.28756295 2 10 C-0.05499927 6.66062618 -0.22130713 3.87287475 0 0 Z " fill="#E1E1E1" transform="translate(76,171)"/>
<path d="M0 0 C0.66 0.33 1.32 0.66 2 1 C1.50666993 8.96132664 1.50666993 8.96132664 -0.25 12.5625 C-2 14 -2 14 -4.6875 14.25 C-5.450625 14.1675 -6.21375 14.085 -7 14 C-7.28875 13.236875 -7.5775 12.47375 -7.875 11.6875 C-8.96269013 8.84970692 -8.96269013 8.84970692 -11 6 C-10.625 3.8125 -10.625 3.8125 -10 2 C-9.34 2.33 -8.68 2.66 -8 3 C-8 3.66 -8 4.32 -8 5 C-7.195625 5.309375 -6.39125 5.61875 -5.5625 5.9375 C-3 7 -3 7 -2 8 C-1.34 5.36 -0.68 2.72 0 0 Z " fill="#091208" transform="translate(131,86)"/>
<path d="M0 0 C-4.4 5.97142857 -4.4 5.97142857 -8 7 C-11.625 6.8125 -11.625 6.8125 -15 6 C-15.66 5.01 -16.32 4.02 -17 3 C-16.67 2.34 -16.34 1.68 -16 1 C-10.74469407 -0.34751434 -5.38420602 -0.09576651 0 0 Z " fill="#B3B0A8" transform="translate(106,72)"/>
<path d="M0 0 C1.67542976 0.28604898 3.34385343 0.61781233 5 1 C5.33 2.98 5.66 4.96 6 7 C2.4912812 10.09592835 -0.49197399 11.74194623 -5 13 C-5.33 10.69 -5.66 8.38 -6 6 C-4.68 6 -3.36 6 -2 6 C-2 7.32 -2 8.64 -2 10 C-1.01 9.34 -0.02 8.68 1 8 C0.34 7.34 -0.32 6.68 -1 6 C-1.1875 3.4375 -1.1875 3.4375 -1 1 C-0.67 0.67 -0.34 0.34 0 0 Z " fill="#755101" transform="translate(52,67)"/>
<path d="M0 0 C0.66 0 1.32 0 2 0 C2.66 4.29 3.32 8.58 4 13 C4.99 13 5.98 13 7 13 C7 9.7 7 6.4 7 3 C7.33 3 7.66 3 8 3 C8.05386629 5.12472576 8.09273071 7.24983652 8.125 9.375 C8.14820313 10.55835937 8.17140625 11.74171875 8.1953125 12.9609375 C8 16 8 16 6 18 C5.67 18.99 5.34 19.98 5 21 C4.34 21 3.68 21 3 21 C-0.0017506 13.92444501 -0.34855655 7.62951555 0 0 Z " fill="#A3A298" transform="translate(45,91)"/>
<path d="M0 0 C0.72445312 0.433125 1.44890625 0.86625 2.1953125 1.3125 C3.16210938 1.869375 4.12890625 2.42625 5.125 3 C6.55199219 3.8353125 6.55199219 3.8353125 8.0078125 4.6875 C11.26515122 6.11630654 13.4837829 6.25041309 17 6 C16.01 6.99 15.02 7.98 14 9 C14.66 10.32 15.32 11.64 16 13 C14.02 13.99 14.02 13.99 12 15 C11.62488281 14.55269531 11.24976563 14.10539062 10.86328125 13.64453125 C8.39027889 10.72302468 5.92796777 7.92956849 3.1875 5.25 C1 3 1 3 0 0 Z " fill="#E5B410" transform="translate(34,54)"/>
<path d="M0 0 C1.32 0.33 2.64 0.66 4 1 C4.33 3.64 4.66 6.28 5 9 C2.03 9.66 -0.94 10.32 -4 11 C-3.979375 10.236875 -3.95875 9.47375 -3.9375 8.6875 C-3.87057159 5.89814214 -3.87057159 5.89814214 -5 3 C-3.35 2.34 -1.7 1.68 0 1 C0 0.67 0 0.34 0 0 Z " fill="#B8A77C" transform="translate(73,56)"/>
<path d="M0 0 C1.98 0 3.96 0 6 0 C6.66 4.29 7.32 8.58 8 13 C6.35 12.67 4.7 12.34 3 12 C0.74128414 7.9498888 -0.4221879 4.64406686 0 0 Z " fill="#C8D0D5" transform="translate(62,173)"/>
<path d="M0 0 C3.81377846 1.49827011 5.57365545 3.76487393 8 7 C8.66 7.66 9.32 8.32 10 9 C7.03368051 11.47193291 4.48763093 13.25618453 1 15 C-1.31 12.69 -3.62 10.38 -6 8 C-2.13304322 8 0.5088452 9.41909971 4 11 C3.52269162 9.5410574 3.04308958 8.08286504 2.5625 6.625 C2.29566406 5.81289062 2.02882813 5.00078125 1.75390625 4.1640625 C1.04820271 1.98968201 1.04820271 1.98968201 0 0 Z " fill="#856002" transform="translate(38,61)"/>
<path d="M0 0 C1.98 0 3.96 0 6 0 C5.53829217 4.70941985 4.98551094 8.24046771 2 12 C0.68 12.33 -0.64 12.66 -2 13 C-1.34 8.71 -0.68 4.42 0 0 Z " fill="#EDEBE9" transform="translate(129,173)"/>
<path d="M0 0 C0.99 0 1.98 0 3 0 C2.67 0.99 2.34 1.98 2 3 C2.52046102 9.50066025 3.68075225 15.02632078 8 20 C8.99 20.33 9.98 20.66 11 21 C10.67 21.99 10.34 22.98 10 24 C4.24122029 21.59846633 2.05058926 16.45137493 -0.3125 10.9375 C-1.11063388 7.52729159 -1.20532489 4.49052314 -1 1 C-0.67 0.67 -0.34 0.34 0 0 Z " fill="#E2A989" transform="translate(46,118)"/>
<path d="M0 0 C-1.5885342 4.28904235 -4.43127368 6.32345526 -8 9 C-8.66 9 -9.32 9 -10 9 C-10 10.98 -10 12.96 -10 15 C-10.99 14.67 -11.98 14.34 -13 14 C-13.05391993 12.20866022 -13.09275571 10.41686101 -13.125 8.625 C-13.14820313 7.62726563 -13.17140625 6.62953125 -13.1953125 5.6015625 C-13 3 -13 3 -11 1 C-10.34 1.99 -9.68 2.98 -9 4 C-6.72669592 4.20823168 -6.72669592 4.20823168 -4.5 2 C-2 0 -2 0 0 0 Z " fill="#44433B" transform="translate(55,82)"/>
<path d="M0 0 C4.29 0.33 8.58 0.66 13 1 C11.02 1.99 11.02 1.99 9 3 C8.18828772 5.55519921 8.18828772 5.55519921 8 8 C5.69 8 3.38 8 1 8 C0.67 5.36 0.34 2.72 0 0 Z " fill="#E7B201" transform="translate(105,55)"/>
<path d="M0 0 C3.465 1.98 3.465 1.98 7 4 C7 3.67 7 3.34 7 3 C12.28 2.34 17.56 1.68 23 1 C23 1.99 23 2.98 23 4 C19.06526665 5.83523011 15.8312028 6.32440184 11.5 6.375 C10.3965625 6.40335938 9.293125 6.43171875 8.15625 6.4609375 C4.34956683 5.905011 2.69020286 4.70024093 0 2 C0 1.34 0 0.68 0 0 Z " fill="#0A0807" transform="translate(101,124)"/>
<path d="M0 0 C0.66 1.32 1.32 2.64 2 4 C2.66 4 3.32 4 4 4 C4.33 4.99 4.66 5.98 5 7 C5.928125 6.835 6.85625 6.67 7.8125 6.5 C11 6 11 6 14 6 C12 8.125 12 8.125 9 10 C5.1875 9.1875 5.1875 9.1875 3.1015625 8.52734375 C-2.9081981 7.01931832 -10.09953622 9.59317646 -16 11 C-14.91796875 9.078125 -14.91796875 9.078125 -13 7 C-9.86328125 6.171875 -9.86328125 6.171875 -6.3125 5.75 C-5.13300781 5.60046875 -3.95351562 5.4509375 -2.73828125 5.296875 C-1.83464844 5.19890625 -0.93101563 5.1009375 0 5 C0 3.35 0 1.7 0 0 Z " fill="#714419" transform="translate(78,60)"/>
<path d="M0 0 C3.71011541 5.56517311 3.11604544 12.50145542 3 19 C3.99 19.33 4.98 19.66 6 20 C2.04 20.495 2.04 20.495 -2 21 C-1.84152588 20.42475586 -1.68305176 19.84951172 -1.51977539 19.25683594 C-1.02086674 17.09060223 -0.80111676 15.10677317 -0.68359375 12.890625 C-0.62075195 11.75947266 -0.62075195 11.75947266 -0.55664062 10.60546875 C-0.51732422 9.82816406 -0.47800781 9.05085938 -0.4375 8.25 C-0.39431641 7.45722656 -0.35113281 6.66445312 -0.30664062 5.84765625 C-0.20097009 3.89862185 -0.10002034 1.94933252 0 0 Z " fill="#030D02" transform="translate(53,91)"/>
<path d="M0 0 C2.125 0.375 2.125 0.375 4 1 C4.14285714 8.42857143 4.14285714 8.42857143 3 12 C1.68 11.67 0.36 11.34 -1 11 C-1.22174933 9.54364629 -1.42698698 8.08477044 -1.625 6.625 C-1.74101563 5.81289063 -1.85703125 5.00078125 -1.9765625 4.1640625 C-1.98429687 3.44992188 -1.99203125 2.73578125 -2 2 C-1.34 1.34 -0.68 0.68 0 0 Z " fill="#C23140" transform="translate(83,52)"/>
<path d="M0 0 C1.19109375 0.16048828 1.19109375 0.16048828 2.40625 0.32421875 C3.2003125 0.42347656 3.994375 0.52273437 4.8125 0.625 C6.90625 1.01171875 6.90625 1.01171875 8.90625 2.01171875 C8.90625 3.66171875 8.90625 5.31171875 8.90625 7.01171875 C8.57625 5.69171875 8.24625 4.37171875 7.90625 3.01171875 C3.25572128 2.74239354 3.25572128 2.74239354 -1.09375 4.01171875 C-1.09375 7.97171875 -1.09375 11.93171875 -1.09375 16.01171875 C-1.42375 16.01171875 -1.75375 16.01171875 -2.09375 16.01171875 C-2.09375 14.36171875 -2.09375 12.71171875 -2.09375 11.01171875 C-2.75375 11.01171875 -3.41375 11.01171875 -4.09375 11.01171875 C-4.09375 10.02171875 -4.09375 9.03171875 -4.09375 8.01171875 C-4.75375 7.68171875 -5.41375 7.35171875 -6.09375 7.01171875 C-3.51773898 0.01968884 -3.51773898 0.01968884 0 0 Z " fill="#B28528" transform="translate(81.09375,48.98828125)"/>
<path d="M0 0 C-0.33 0.66 -0.66 1.32 -1 2 C-7.3835456 4.12784853 -13.31344281 4.22124638 -20 4 C-19.67 3.01 -19.34 2.02 -19 1 C-18.24074219 0.93941406 -17.48148437 0.87882813 -16.69921875 0.81640625 C-15.70535156 0.73261719 -14.71148437 0.64882812 -13.6875 0.5625 C-12.70136719 0.48128906 -11.71523437 0.40007812 -10.69921875 0.31640625 C-2.6015625 -0.6328125 -2.6015625 -0.6328125 0 0 Z " fill="#0A0808" transform="translate(83,133)"/>
<path d="M0 0 C2.4375 0.375 2.4375 0.375 5 1 C7.50329162 6.00658324 6.76311044 14.18270273 5.328125 19.48046875 C4.5 21.375 4.5 21.375 3 24 C2.34 23.34 1.68 22.68 1 22 C1.32613281 21.30132812 1.65226563 20.60265625 1.98828125 19.8828125 C3.1083599 16.69123705 3.23397381 14.24646385 3.1875 10.875 C3.18105469 9.84117188 3.17460937 8.80734375 3.16796875 7.7421875 C3.11257378 4.90833023 3.11257378 4.90833023 2 2 C1.01 2.495 1.01 2.495 0 3 C0 2.01 0 1.02 0 0 Z " fill="#ECB18F" transform="translate(134,104)"/>
<path d="M0 0 C0.33 1.98 0.66 3.96 1 6 C-1.97 6.66 -4.94 7.32 -8 8 C-8 6.02 -8 4.04 -8 2 C-4.91190305 0.23537317 -3.76687864 0 0 0 Z " fill="#EFD376" transform="translate(71,69)"/>
<path d="M0 0 C3.63 0 7.26 0 11 0 C11.66 1.32 12.32 2.64 13 4 C15.67790463 4.83886169 18.1737941 4.81766414 21 5 C21 5.33 21 5.66 21 6 C14.73 6 8.46 6 2 6 C6 4 6 4 8 4 C8 3.34 8 2.68 8 2 C5.36 1.67 2.72 1.34 0 1 C0 0.67 0 0.34 0 0 Z " fill="#403427" transform="translate(107,95)"/>
<path d="M0 0 C1.6266848 0.28211877 3.25132896 0.57602375 4.875 0.875 C5.77992187 1.03742188 6.68484375 1.19984375 7.6171875 1.3671875 C10 2 10 2 12 4 C11.625 6.125 11.625 6.125 11 8 C9.453125 7.2884375 9.453125 7.2884375 7.875 6.5625 C4.61465838 5.15477612 1.53948917 4.43164502 -2 4 C-1.34 3.67 -0.68 3.34 0 3 C0 2.01 0 1.02 0 0 Z " fill="#816300" transform="translate(116,67)"/>
<path d="M0 0 C0.66 0.33 1.32 0.66 2 1 C1.77870959 4.09806577 0.9151813 5.0848187 -1.3125 7.3125 C-6.03082629 10.2918854 -11.76898795 8.77872671 -17 8 C-17.33 6.35 -17.66 4.7 -18 3 C-17.67 3.99 -17.34 4.98 -17 6 C-16.113125 5.979375 -15.22625 5.95875 -14.3125 5.9375 C-11.37830369 5.99286219 -8.84506304 6.3305734 -6 7 C-5.34 6.01 -4.68 5.02 -4 4 C-2.68 4 -1.36 4 0 4 C0 2.68 0 1.36 0 0 Z " fill="#944F40" transform="translate(104,133)"/>
<path d="M0 0 C0.66 0.66 1.32 1.32 2 2 C1.67 2.99 1.34 3.98 1 5 C1.66 5.33 2.32 5.66 3 6 C3 7.98 3 9.96 3 12 C4.65 11.67 6.3 11.34 8 11 C7.67 11.99 7.34 12.98 7 14 C6.34 14 5.68 14 5 14 C4.67 14.99 4.34 15.98 4 17 C4 16.34 4 15.68 4 15 C3.01 15 2.02 15 1 15 C0.87882812 14.43410156 0.75765625 13.86820313 0.6328125 13.28515625 C0.38144531 12.18494141 0.38144531 12.18494141 0.125 11.0625 C-0.03742187 10.33160156 -0.19984375 9.60070312 -0.3671875 8.84765625 C-0.82961523 6.79299706 -0.82961523 6.79299706 -3 6 C-2.34 6 -1.68 6 -1 6 C-0.67 4.02 -0.34 2.04 0 0 Z " fill="#1E231D" transform="translate(51,106)"/>
<path d="M0 0 C0.33 2.64 0.66 5.28 1 8 C-0.98 8.33 -2.96 8.66 -5 9 C-5.33 7.35 -5.66 5.7 -6 4 C-1.125 0 -1.125 0 0 0 Z " fill="#FAEBBA" transform="translate(74,48)"/>
<path d="M0 0 C-5.65410276 3.26198236 -12.58694216 3.72070555 -19 3 C-19.99 2.34 -20.98 1.68 -22 1 C-19.45947886 0.63491323 -16.9182372 0.28268543 -14.375 -0.0625 C-13.30572266 -0.2181543 -13.30572266 -0.2181543 -12.21484375 -0.37695312 C-7.89893076 -0.95108834 -4.30515309 -0.97103611 0 0 Z " fill="#342E2B" transform="translate(99,105)"/>
<path d="M0 0 C-0.99 0.495 -0.99 0.495 -2 1 C-2.33 1.99 -2.66 2.98 -3 4 C-4.65 3.67 -6.3 3.34 -8 3 C-8.99 4.485 -8.99 4.485 -10 6 C-10.99 5.01 -11.98 4.02 -13 3 C-9.43237262 -2.35144107 -5.66956741 -0.83649355 0 0 Z " fill="#302C2A" transform="translate(113,102)"/>
<path d="M0 0 C-0.61754259 1.31602523 -1.24428742 2.62773556 -1.875 3.9375 C-2.22304687 4.66839844 -2.57109375 5.39929688 -2.9296875 6.15234375 C-4 8 -4 8 -6 9 C-5.67 7.68 -5.34 6.36 -5 5 C-6.98 5 -8.96 5 -11 5 C-10 2 -10 2 -7.75 0.8125 C-5.00208853 0.00061706 -2.84552111 -0.16260121 0 0 Z " fill="#242D20" transform="translate(84,78)"/>
<path d="M0 0 C2.97 0.495 2.97 0.495 6 1 C5.67 2.65 5.34 4.3 5 6 C3.125 6.625 3.125 6.625 1 7 C0.34 6.34 -0.32 5.68 -1 5 C-0.625 2.375 -0.625 2.375 0 0 Z " fill="#1E3A18" transform="translate(100,55)"/>
<path d="M0 0 C1.41110894 2.82221788 0.52254327 4.20255104 -0.375 7.1875 C-1.61202256 11.48036367 -2.50723759 15.56513827 -3 20 C-3.99 20 -4.98 20 -6 20 C-7.19894445 16.40316664 -6.74361288 15.89571431 -5.125 12.625 C-3.58828725 9.38316762 -2.62519333 6.54276219 -2 3 C-1.34 2.01 -0.68 1.02 0 0 Z " fill="#91730B" transform="translate(130,38)"/>
<path d="M0 0 C-1.33333333 2.66666667 -2.66666667 5.33333333 -4 8 C-5.32 7.34 -6.64 6.68 -8 6 C-8 5.34 -8 4.68 -8 4 C-8.99 3.67 -9.98 3.34 -11 3 C-9.73160474 2.49384702 -8.46016898 1.99530901 -7.1875 1.5 C-6.12595703 1.08234375 -6.12595703 1.08234375 -5.04296875 0.65625 C-3 0 -3 0 0 0 Z " fill="#222222" transform="translate(132,99)"/>
<path d="M0 0 C1.67542976 0.28604898 3.34385343 0.61781233 5 1 C5.625 2.875 5.625 2.875 6 5 C5.34 5.66 4.68 6.32 4 7 C1.875 6.625 1.875 6.625 0 6 C-0.38218767 4.34385343 -0.71395102 2.67542976 -1 1 C-0.67 0.67 -0.34 0.34 0 0 Z " fill="#21288E" transform="translate(114,57)"/>
<path d="M0 0 C4.71028037 1.8317757 4.71028037 1.8317757 6.9375 3.125 C9.85258052 4.36170083 11.85484377 4.37741875 15 4 C18.32808239 2.11586085 18.32808239 2.11586085 21 0 C19.98949988 2.66404576 19.02766415 3.97707828 16.8125 5.8125 C12.31272527 7.71240489 8.73638463 6.50162223 4.1875 5.1875 C1.62588888 3.79691111 0.98863817 2.69628591 0 0 Z " fill="#E3C14E" transform="translate(53,46)"/>
<path d="M0 0 C1.67542976 0.28604898 3.34385343 0.61781233 5 1 C4.67 2.65 4.34 4.3 4 6 C2.0625 6.5625 2.0625 6.5625 0 7 C-1 6 -1 6 -1.125 3.5 C-1 1 -1 1 0 0 Z " fill="#151C80" transform="translate(52,67)"/>
<path d="M0 0 C0.33 0 0.66 0 1 0 C1.14695312 0.64066406 1.29390625 1.28132812 1.4453125 1.94140625 C3.09212009 8.29202632 5.30733636 12.41364265 10 17 C7 17 7 17 5.2109375 15.2421875 C-1 7.23404255 -1 7.23404255 -1 2 C-0.67 1.34 -0.34 0.68 0 0 Z " fill="#191E1D" transform="translate(75,171)"/>
<path d="M0 0 C0.33 1.98 0.66 3.96 1 6 C-3.40114397 5.49701212 -5.71195019 3.91227269 -9 1 C-5.846632 0.29925156 -3.27275026 0 0 0 Z " fill="#6C91AD" transform="translate(58,175)"/>
<path d="M0 0 C1.65 0 3.3 0 5 0 C4.01 0.495 4.01 0.495 3 1 C3.33 2.98 3.66 4.96 4 7 C2.68 7.33 1.36 7.66 0 8 C-0.79953138 4.71303767 -1.09658936 3.28976808 0 0 Z " fill="#333333" transform="translate(54,111)"/>
<path d="M0 0 C1.09765625 1.7578125 1.09765625 1.7578125 2 4 C0.5819446 9.43038268 -3.32128816 13.9125424 -7 18 C-7.66 17.67 -8.32 17.34 -9 17 C-8.51789063 16.443125 -8.03578125 15.88625 -7.5390625 15.3125 C-3.35486722 10.25730896 -1.06223299 6.49142382 0 0 Z " fill="#1C2120" transform="translate(121,171)"/>
<path d="M0 0 C0.33 0.99 0.66 1.98 1 3 C-2 5 -2 5 -4.5 4.625 C-5.325 4.41875 -6.15 4.2125 -7 4 C-7.99 4 -8.98 4 -10 4 C-10 3.34 -10 2.68 -10 2 C-3.375 -1.125 -3.375 -1.125 0 0 Z " fill="#2D2520" transform="translate(85,129)"/>
<path d="M0 0 C4.875 0.875 4.875 0.875 6 2 C6.04063832 3.66617115 6.042721 5.33388095 6 7 C4.35 7.33 2.7 7.66 1 8 C1.020625 7.236875 1.04125 6.47375 1.0625 5.6875 C1.12942841 2.89814214 1.12942841 2.89814214 0 0 Z " fill="#EFDDA2" transform="translate(68,59)"/>
<path d="M0 0 C0.66 0 1.32 0 2 0 C2.391875 0.886875 2.78375 1.77375 3.1875 2.6875 C5.06636955 6.12129608 7.13295455 8.36541769 10 11 C6.48134855 10.6984013 4.99242548 9.99394038 2.1875 7.75 C0 5 0 5 -0.3125 2.1875 C-0.209375 1.465625 -0.10625 0.74375 0 0 Z " fill="#E4E4E4" transform="translate(76,171)"/>
<path d="M0 0 C0.99 0.33 1.98 0.66 3 1 C3.33 2.98 3.66 4.96 4 7 C2.02 7.99 2.02 7.99 0 9 C-1 8 -1 8 -1.125 4.5 C-1 1 -1 1 0 0 Z " fill="#6D6C6D" transform="translate(134,127)"/>
<path d="M0 0 C2.64 0.33 5.28 0.66 8 1 C2.85714286 5.42857143 2.85714286 5.42857143 -1 6 C-0.67 4.02 -0.34 2.04 0 0 Z " fill="#6C95AD" transform="translate(139,175)"/>
<path d="M0 0 C2.97 0.99 5.94 1.98 9 3 C8.01 3.99 7.02 4.98 6 6 C6 5.01 6 4.02 6 3 C5.01 3 4.02 3 3 3 C2.3185177 4.89179203 2.3185177 4.89179203 2 7 C2.66 7.66 3.32 8.32 4 9 C2.35 8.67 0.7 8.34 -1 8 C-0.67 5.36 -0.34 2.72 0 0 Z " fill="#D09F00" transform="translate(119,57)"/>
<path d="M0 0 C0.99 0.4021875 0.99 0.4021875 2 0.8125 C5.64939067 2.25705047 9.32245433 3.62871178 13 5 C10.12372114 7.07092078 8.96866045 6.99513697 5.375 6.4375 C2 5 2 5 0.5625 2.375 C0.376875 1.59125 0.19125 0.8075 0 0 Z " fill="#59473C" transform="translate(81,175)"/>
<path d="M0 0 C0.66 0.99 1.32 1.98 2 3 C-3.78571429 7.82142857 -3.78571429 7.82142857 -7 9 C-7.99 8.67 -8.98 8.34 -10 8 C-9.44570312 7.59007813 -8.89140625 7.18015625 -8.3203125 6.7578125 C-7.59585938 6.21898438 -6.87140625 5.68015625 -6.125 5.125 C-5.04605469 4.32449219 -5.04605469 4.32449219 -3.9453125 3.5078125 C-1.91747368 2.00126838 -1.91747368 2.00126838 0 0 Z " fill="#14190F" transform="translate(91,80)"/>
<path d="M0 0 C0.28875 0.61875 0.5775 1.2375 0.875 1.875 C1.93720042 4.13325765 1.93720042 4.13325765 4 6 C2.02 6.99 2.02 6.99 0 8 C-0.33 6.68 -0.66 5.36 -1 4 C-1.66 4 -2.32 4 -3 4 C-3.33 4.66 -3.66 5.32 -4 6 C-4.99 5.67 -5.98 5.34 -7 5 C-2.25 0 -2.25 0 0 0 Z " fill="#C29500" transform="translate(50,69)"/>
<path d="M0 0 C2.64 0.99 5.28 1.98 8 3 C7.67 3.66 7.34 4.32 7 5 C4.67843403 5.40729228 2.3431213 5.74438677 0 6 C0 4.02 0 2.04 0 0 Z " fill="#EFD47B" transform="translate(78,67)"/>
<path d="M0 0 C0.33 0 0.66 0 1 0 C1.18451025 9.41002278 1.18451025 9.41002278 0 14 C-0.99 13.67 -1.98 13.34 -3 13 C-2.68817931 11.58318366 -2.37551263 10.16655349 -2.0625 8.75 C-1.88847656 7.96109375 -1.71445313 7.1721875 -1.53515625 6.359375 C-1.052444 4.23121297 -0.53836822 2.11467158 0 0 Z " fill="#6687A1" transform="translate(126,173)"/>
<path d="M0 0 C1.98 0 3.96 0 6 0 C5.071875 0.495 5.071875 0.495 4.125 1 C0.98415875 3.95608588 0.82441798 6.80920859 0 11 C0.66 11.33 1.32 11.66 2 12 C0.68 12.33 -0.64 12.66 -2 13 C-1.34 8.71 -0.68 4.42 0 0 Z " fill="#89A2B4" transform="translate(129,173)"/>
<path d="M0 0 C1.1875 1.5625 1.1875 1.5625 2 4 C0.625 7.75 0.625 7.75 -1 11 C-1.66 10.01 -2.32 9.02 -3 8 C-3.66 7.34 -4.32 6.68 -5 6 C-4.360625 5.566875 -3.72125 5.13375 -3.0625 4.6875 C-0.73253997 3.08760823 -0.73253997 3.08760823 0 0 Z " fill="#151211" transform="translate(87,120)"/>
<path d="M0 0 C0.33 0 0.66 0 1 0 C1.33 4.95 1.66 9.9 2 15 C1.34 15 0.68 15 0 15 C-0.66 15.66 -1.32 16.32 -2 17 C-2.33 15.02 -2.66 13.04 -3 11 C-2.34 10.67 -1.68 10.34 -1 10 C-0.53248212 7.64400765 -0.53248212 7.64400765 -0.375 4.9375 C-0.30023438 4.01839844 -0.22546875 3.09929687 -0.1484375 2.15234375 C-0.09945312 1.44207031 -0.05046875 0.73179688 0 0 Z " fill="#262D22" transform="translate(58,90)"/>
<path d="M0 0 C-2.5652659 1.71017726 -4.87960965 2.90417811 -7.6875 4.125 C-8.49574219 4.47820312 -9.30398437 4.83140625 -10.13671875 5.1953125 C-10.75160156 5.46085937 -11.36648437 5.72640625 -12 6 C-12 5.01 -12 4.02 -12 3 C-10.5682384 2.30062798 -9.12932968 1.61587282 -7.6875 0.9375 C-6.48673828 0.36322266 -6.48673828 0.36322266 -5.26171875 -0.22265625 C-3 -1 -3 -1 0 0 Z " fill="#0E0D0A" transform="translate(67,78)"/>
<path d="M0 0 C2.7710688 2.34591852 3.52059284 4.14776201 4.1875 7.6875 C4.34605469 8.49574219 4.50460938 9.30398437 4.66796875 10.13671875 C4.77753906 10.75160156 4.88710937 11.36648437 5 12 C2.44690187 9.52578973 0.57258391 7.22379701 -1 4 C-0.6875 1.6875 -0.6875 1.6875 0 0 Z " fill="#192713" transform="translate(109,74)"/>
<path d="M0 0 C0.99 0.33 1.98 0.66 3 1 C3.33 3.31 3.66 5.62 4 8 C3.01 8 2.02 8 1 8 C1 7.34 1 6.68 1 6 C0.01 5.67 -0.98 5.34 -2 5 C-1.34 3.35 -0.68 1.7 0 0 Z " fill="#906F00" transform="translate(122,59)"/>
<path d="M0 0 C1.051875 0.433125 1.051875 0.433125 2.125 0.875 C5.05452503 2.02133588 8.00921653 3.02625654 11 4 C9.68 5.32 8.36 6.64 7 8 C5.83035398 6.8572081 4.66435444 5.71068285 3.5 4.5625 C2.8503125 3.92441406 2.200625 3.28632812 1.53125 2.62890625 C0 1 0 1 0 0 Z " fill="#907418" transform="translate(32,68)"/>
<path d="M0 0 C0 0.66 0 1.32 0 2 C-4.43076923 4.09230769 -4.43076923 4.09230769 -7.3125 3.625 C-7.869375 3.41875 -8.42625 3.2125 -9 3 C-7 0 -7 0 -5.0625 -0.75 C-3 -1 -3 -1 0 0 Z " fill="#110E0B" transform="translate(124,126)"/>
<path d="M0 0 C-0.0625 1.75 -0.0625 1.75 -1 4 C-3.25123006 5.72518887 -5.40134903 6.76906007 -8 8 C-8.66 7.67 -9.32 7.34 -10 7 C-7.62804123 3.37964188 -4.6075955 0 0 0 Z " fill="#1A1410" transform="translate(127,115)"/>
<path d="M0 0 C3.63 0 7.26 0 11 0 C11.66 1.32 12.32 2.64 13 4 C8.61667943 3.17812739 4.32059823 2.09845718 0 1 C0 0.67 0 0.34 0 0 Z " fill="#906B47" transform="translate(107,95)"/>
<path d="M0 0 C2.6875 -0.3125 2.6875 -0.3125 5 0 C5.33 2.31 5.66 4.62 6 7 C5.01 5.68 4.02 4.36 3 3 C1.02 3.66 -0.96 4.32 -3 5 C-1.8125 2.5 -1.8125 2.5 0 0 Z " fill="#9C9D93" transform="translate(107,72)"/>
<path d="M0 0 C3.3 0 6.6 0 10 0 C10.33 0.99 10.66 1.98 11 3 C9.54077307 2.88590407 8.08259402 2.75834456 6.625 2.625 C5.40683594 2.52058594 5.40683594 2.52058594 4.1640625 2.4140625 C2 2 2 2 0 0 Z " fill="#242220" transform="translate(70,107)"/>
<path d="M0 0 C1.32 0.33 2.64 0.66 4 1 C1.525 2.485 1.525 2.485 -1 4 C-0.67 4.66 -0.34 5.32 0 6 C-2.375 7.5625 -2.375 7.5625 -5 9 C-5.66 8.67 -6.32 8.34 -7 8 C-4.69 5.36 -2.38 2.72 0 0 Z " fill="#3E3630" transform="translate(67,98)"/>
<path d="M0 0 C0.66 0 1.32 0 2 0 C2.33 1.32 2.66 2.64 3 4 C1.02 5.32 -0.96 6.64 -3 8 C-2.25 2.25 -2.25 2.25 0 0 Z " fill="#9F7A00" transform="translate(49,80)"/>
<path d="M0 0 C0.66 0.66 1.32 1.32 2 2 C1.74997427 6.50046315 -0.41754304 9.41788227 -3 13 C-4 11 -4 11 -3.22265625 8.3984375 C-2.83980469 7.40070312 -2.45695312 6.40296875 -2.0625 5.375 C-1.68222656 4.37210938 -1.30195312 3.36921875 -0.91015625 2.3359375 C-0.60980469 1.56507812 -0.30945313 0.79421875 0 0 Z " fill="#E7C348" transform="translate(79,31)"/>
<path d="M0 0 C0.66 0 1.32 0 2 0 C2.99 2.64 3.98 5.28 5 8 C3.35 8 1.7 8 0 8 C0 5.36 0 2.72 0 0 Z " fill="#6C8DA7" transform="translate(70,179)"/>
<path d="M0 0 C2.14336161 3.4766338 2.21277626 6.21229195 2.125 10.25 C2.10695312 11.32765625 2.08890625 12.4053125 2.0703125 13.515625 C2.03550781 14.74539062 2.03550781 14.74539062 2 16 C1.67 16 1.34 16 1 16 C0.63705686 13.8973294 0.28493028 11.79278943 -0.0625 9.6875 C-0.35833984 7.92986328 -0.35833984 7.92986328 -0.66015625 6.13671875 C-1 3 -1 3 0 0 Z " fill="#D28269" transform="translate(136,105)"/>
<path d="M0 0 C-0.66 0 -1.32 0 -2 0 C-2 0.66 -2 1.32 -2 2 C-6.455 2.495 -6.455 2.495 -11 3 C-10 1 -10 1 -7.1875 -0.1875 C-4.14038924 -0.96421451 -2.86250637 -1.10096399 0 0 Z " fill="#1C1A14" transform="translate(84,73)"/>
<path d="M0 0 C0.99 0.33 1.98 0.66 3 1 C3.33 2.98 3.66 4.96 4 7 C2.35 6.67 0.7 6.34 -1 6 C-1.042721 4.33388095 -1.04063832 2.66617115 -1 1 C-0.67 0.67 -0.34 0.34 0 0 Z " fill="#E8B300" transform="translate(97,55)"/>
<path d="M0 0 C1.65 0 3.3 0 5 0 C4.67 1.98 4.34 3.96 4 6 C2 4.6875 2 4.6875 0 3 C0 2.01 0 1.02 0 0 Z " fill="#164123" transform="translate(42,76)"/>
<path d="M0 0 C0.66 0 1.32 0 2 0 C1.25 7.75 1.25 7.75 -1 10 C-2.23076923 4.58461538 -2.23076923 4.58461538 -1.0625 1.625 C-0.5365625 0.820625 -0.5365625 0.820625 0 0 Z " fill="#D1D1D1" transform="translate(119,171)"/>
<path d="M0 0 C0.99 0.33 1.98 0.66 3 1 C1.68 2.65 0.36 4.3 -1 6 C-1.99 5.67 -2.98 5.34 -4 5 C-2.25 1.125 -2.25 1.125 0 0 Z " fill="#211D1B" transform="translate(127,122)"/>
<path d="M0 0 C1.98 0 3.96 0 6 0 C6 1.32 6 2.64 6 4 C4.35 4 2.7 4 1 4 C0.67 2.68 0.34 1.36 0 0 Z " fill="#161616" transform="translate(110,101)"/>
<path d="M0 0 C0.66 0.33 1.32 0.66 2 1 C1.67 1.33 1.34 1.66 1 2 C1.66 2.66 2.32 3.32 3 4 C0.69 4.33 -1.62 4.66 -4 5 C-4.33 4.01 -4.66 3.02 -5 2 C-2.625 0.9375 -2.625 0.9375 0 0 Z " fill="#192013" transform="translate(100,77)"/>
<path d="M0 0 C1.32 0.66 2.64 1.32 4 2 C3.01 2 2.02 2 1 2 C1.309375 3.423125 1.309375 3.423125 1.625 4.875 C1.74875 5.90625 1.8725 6.9375 2 8 C1.34 8.66 0.68 9.32 0 10 C-1.125 2.25 -1.125 2.25 0 0 Z " fill="#1E1815" transform="translate(57,123)"/>
<path d="M0 0 C0.66 0.33 1.32 0.66 2 1 C1.34 4.63 0.68 8.26 0 12 C-0.33 12 -0.66 12 -1 12 C-1.02687279 10.18757948 -1.04633715 8.37504767 -1.0625 6.5625 C-1.07410156 5.55316406 -1.08570313 4.54382813 -1.09765625 3.50390625 C-1 1 -1 1 0 0 Z " fill="#050B03" transform="translate(60,91)"/>
<path d="M0 0 C5.75 0.875 5.75 0.875 8 2 C8.33 1.34 8.66 0.68 9 0 C9.33 1.65 9.66 3.3 10 5 C5.05 3.02 5.05 3.02 0 1 C0 0.67 0 0.34 0 0 Z " fill="#C49800" transform="translate(118,70)"/>
<path d="M0 0 C3 4 3 4 2.6875 6.75 C2.460625 7.4925 2.23375 8.235 2 9 C1.01 9.33 0.02 9.66 -1 10 C-0.67 6.7 -0.34 3.4 0 0 Z " fill="#700F12" transform="translate(87,53)"/>
<path d="M0 0 C1.485 0.99 1.485 0.99 3 2 C2.67 4.31 2.34 6.62 2 9 C1.34 8.67 0.68 8.34 0 8 C-0.6875 4.5 -0.6875 4.5 -1 1 C-0.67 0.67 -0.34 0.34 0 0 Z " fill="#533129" transform="translate(99,120)"/>
<path d="M0 0 C1.32 0.33 2.64 0.66 4 1 C4 1.99 4 2.98 4 4 C2.02 4 0.04 4 -2 4 C-1.34 2.68 -0.68 1.36 0 0 Z " fill="#1D1D1D" transform="translate(91,109)"/>
<path d="M0 0 C-0.33 0.99 -0.66 1.98 -1 3 C-5.455 2.01 -5.455 2.01 -10 1 C-5.64467851 -1.17766075 -4.53374042 -1.03039555 0 0 Z " fill="#1D1C18" transform="translate(123,72)"/>
<path d="M0 0 C0.33 0.66 0.66 1.32 1 2 C0.06553465 4.03144641 -0.93224776 6.03533587 -2 8 C-4.475 7.01 -4.475 7.01 -7 6 C-6.401875 5.7525 -5.80375 5.505 -5.1875 5.25 C-2.71352479 3.83629988 -1.56629745 2.34944617 0 0 Z " fill="#9C7F1F" transform="translate(134,53)"/>
<path d="M0 0 C0.598125 0.309375 1.19625 0.61875 1.8125 0.9375 C4.08956772 2.10209704 4.08956772 2.10209704 7 3 C6.67 3.99 6.34 4.98 6 6 C3.37812506 4.95125002 2.20628639 4.35068687 0.75 1.875 C0.5025 1.25625 0.255 0.6375 0 0 Z " fill="#D4A182" transform="translate(50,136)"/>
<path d="M0 0 C0.66 0.33 1.32 0.66 2 1 C1.8125 2.875 1.8125 2.875 1 5 C-1.5625 6.25 -1.5625 6.25 -4 7 C-4 6.01 -4 5.02 -4 4 C-2.68 4 -1.36 4 0 4 C0 2.68 0 1.36 0 0 Z " fill="#A25F4D" transform="translate(104,133)"/>
<path d="M0 0 C3.465 1.98 3.465 1.98 7 4 C6.67 4.99 6.34 5.98 6 7 C3.00675737 5.9024777 2.15389099 5.32317108 0.75 2.375 C0.5025 1.59125 0.255 0.8075 0 0 Z " fill="#C09C20" transform="translate(34,54)"/>
<path d="M0 0 C3.33333333 1.66666667 6.66666667 3.33333333 10 5 C7 6 7 6 3.875 4.75 C1 3 1 3 0 0 Z " fill="#C3C3C3" transform="translate(77,178)"/>
<path d="M0 0 C0.66 0.99 1.32 1.98 2 3 C-1 5 -1 5 -3.1875 4.625 C-3.785625 4.41875 -4.38375 4.2125 -5 4 C-3.35 2.68 -1.7 1.36 0 0 Z " fill="#322A25" transform="translate(115,174)"/>
<path d="M0 0 C0.93065133 2.60582371 1.14917407 3.64198224 0.0625 6.25 C-0.4634375 7.11625 -0.4634375 7.11625 -1 8 C-1.66 7.67 -2.32 7.34 -3 7 C-1.125 1.125 -1.125 1.125 0 0 Z " fill="#040A04" transform="translate(66,81)"/>
<path d="M0 0 C1.32 0 2.64 0 4 0 C3.67 1.65 3.34 3.3 3 5 C2.01 4.67 1.02 4.34 0 4 C0 2.68 0 1.36 0 0 Z " fill="#2432AF" transform="translate(53,68)"/>
<path d="M0 0 C0.33 0 0.66 0 1 0 C1 2.31 1 4.62 1 7 C-0.98 7.99 -0.98 7.99 -3 9 C-2.30058404 5.85262818 -1.23921302 2.97411124 0 0 Z " fill="#B7900A" transform="translate(110,32)"/>
</svg>
